# This file uses centimeters as units for non-parametric coordinates.

mtllib marcopuerta.mtl
g default
v -0.684717 2.004590 3.953653
v -0.028873 2.443233 3.953653
v 0.626972 2.004590 3.953653
v -0.684717 2.104590 3.953653
v -0.028873 2.543233 3.953653
v 0.626972 2.104590 3.953653
v -0.684717 2.104590 3.763653
v -0.028873 2.543233 3.763653
v 0.626972 2.104590 3.763653
v -0.684717 2.004590 3.763653
v -0.028873 2.443233 3.763653
v 0.626972 2.004590 3.763653
v -0.626714 2.102260 3.952765
v -0.026714 2.102260 3.952765
v 0.573286 2.102260 3.952765
v -0.026714 2.492379 3.952765
v -0.026714 2.492379 3.762766
v -0.626714 2.102260 3.762766
v -0.026714 2.102260 3.762766
v 0.573286 2.102260 3.762766
v -0.626714 2.102260 3.904982
v -0.026714 2.102260 3.904982
v -0.026714 2.492379 3.904982
v 0.573286 2.102260 3.904982
v -0.625982 0.094507 3.951198
v 0.573604 0.094507 3.951198
v -0.625982 0.763923 3.951198
v 0.573604 0.763923 3.951198
v -0.625982 1.994541 3.951198
v 0.573604 1.994541 3.951198
v -0.625982 2.102755 3.951198
v -0.505905 2.102755 3.951198
v 0.475142 2.102755 3.951198
v 0.573604 2.102755 3.951198
v -0.625982 2.102755 3.761198
v -0.505905 2.102755 3.761198
v 0.475142 2.102755 3.761198
v 0.573604 2.102755 3.761198
v -0.625982 1.994541 3.761198
v 0.573604 1.994541 3.761198
v -0.625982 0.763923 3.761198
v 0.573604 0.763923 3.761198
v -0.625982 0.094507 3.761198
v 0.573604 0.094507 3.761198
v -0.505905 0.763923 3.951198
v -0.505905 1.994541 3.951198
v -0.523289 0.094507 3.951198
v 0.475142 1.994541 3.951198
v 0.475142 0.763923 3.951198
v 0.481771 0.094507 3.951198
v 0.475142 0.763923 3.761198
v 0.481771 0.094507 3.761198
v 0.475142 1.994541 3.761198
v -0.505905 1.994541 3.761198
v -0.505905 0.763923 3.761198
v -0.523289 0.094507 3.761198
v -0.505905 0.763923 3.760048
v -0.505905 1.994541 3.760048
v -0.523289 0.094507 3.760048
v 0.481771 0.094507 3.760048
v 0.475142 0.763923 3.760048
v 0.475142 1.994541 3.760048
vt 0.578816 0.783168
vt 0.578816 0.817767
vt 0.578816 0.825654
vt 0.578816 0.791056
vt 0.578816 0.783168
vt 0.578816 0.791056
vt 0.945915 0.825654
vt 0.945915 0.791056
vt 0.945915 0.791056
vt 0.945915 0.817767
vt 0.945915 0.783168
vt 0.945915 0.783168
vt 0.947629 0.790872
vt 0.947629 0.821643
vt 0.947629 0.790872
vt 0.947629 0.790872
vt 0.672853 0.790872
vt 0.672853 0.790872
vt 0.672853 0.821643
vt 0.672853 0.790872
vt 0.580530 0.790872
vt 0.580530 0.821643
vt 0.580530 0.790872
vt 0.580530 0.790872
vt 0.583560 0.685310
vt 0.583560 0.782376
vt 0.583560 0.782376
vt 0.583560 0.685310
vt 0.583560 0.632509
vt 0.583560 0.632509
vt 0.583560 0.685310
vt 0.583560 0.782376
vt 0.583560 0.782376
vt 0.583560 0.685310
vt 0.583560 0.632509
vt 0.583560 0.632509
vt 0.583560 0.790911
vt 0.583560 0.790911
vt 0.583560 0.790911
vt 0.583560 0.790911
vt 0.950659 0.790911
vt 0.950659 0.790911
vt 0.950659 0.790911
vt 0.950659 0.790911
vt 0.950659 0.782376
vt 0.950659 0.782376
vt 0.950659 0.782376
vt 0.950659 0.782376
vt 0.950659 0.685310
vt 0.950659 0.632509
vt 0.950659 0.632509
vt 0.950659 0.685310
vt 0.950659 0.685310
vt 0.950659 0.632509
vt 0.950659 0.632509
vt 0.950659 0.685310
vt 0.952880 0.685310
vt 0.952880 0.782376
vt 0.952880 0.632509
vt 0.952880 0.685310
vt 0.952880 0.632509
vt 0.952880 0.782376
vt 0.789178 0.245609
vt 0.789178 0.245609
vt 0.789178 0.406397
vt 0.789178 0.245609
vn 0.000004 0.000000 1.000000
vn 0.000001 0.000000 1.000000
vn 0.000003 0.000000 1.000000
vn 0.000001 0.000000 1.000000
vn 0.000000 0.000000 1.000000
vn 0.000000 0.000000 1.000000
vn -0.555938 0.831224 0.000000
vn -0.000002 1.000000 0.000000
vn -0.555938 0.831224 0.000000
vn -0.000002 1.000000 0.000000
vn 0.555940 0.831223 0.000000
vn 0.555940 0.831222 0.000000
vn -0.000002 0.000000 -1.000000
vn -0.000002 0.000000 -1.000000
vn -0.000000 0.000000 -1.000000
vn 0.000000 0.000000 -1.000000
vn 0.000000 0.000000 -1.000000
vn 0.000000 0.000000 -1.000000
vn 0.555940 -0.831222 0.000000
vn -0.000002 -1.000000 0.000000
vn 0.555940 -0.831223 0.000000
vn -0.000002 -1.000000 0.000000
vn -0.555938 -0.831224 0.000000
vn -0.555938 -0.831224 0.000000
vn 1.000000 0.000000 0.000000
vn 1.000000 0.000000 0.000000
vn 1.000000 0.000000 0.000000
vn 1.000000 0.000000 0.000000
vn -1.000000 0.000000 0.000000
vn -1.000000 0.000000 0.000000
vn -1.000000 0.000000 0.000000
vn -1.000000 0.000000 0.000000
vn 0.000000 0.000000 -1.000000
vn 0.000000 0.000000 -1.000000
vn 0.000000 0.000000 -1.000000
vn 0.000000 0.000000 -1.000000
vn 0.000000 0.000000 1.000000
vn 0.000000 0.000000 1.000000
vn 0.000000 0.000000 1.000000
vn 0.000000 0.000000 1.000000
vn -0.545105 0.838368 0.000000
vn 0.000000 1.000000 0.000000
vn -0.545105 0.838368 0.000000
vn 0.000000 1.000000 0.000000
vn 0.545105 0.838368 0.000000
vn 0.545105 0.838368 0.000000
vn 0.000000 1.000000 0.000000
vn 0.000000 1.000000 0.000000
vn 0.000000 1.000000 0.000000
vn 0.000000 1.000000 0.000000
vn 0.545101 -0.838371 0.000000
vn 0.545110 -0.838364 0.000000
vn 0.545101 -0.838370 0.000000
vn 0.545111 -0.838364 0.000000
vn 0.000000 1.000000 0.000000
vn 0.000000 1.000000 0.000000
vn 0.000000 1.000000 0.000000
vn 0.000000 1.000000 0.000000
vn -0.545101 -0.838371 0.000000
vn -0.545110 -0.838364 0.000000
vn -0.545101 -0.838370 0.000000
vn -0.545111 -0.838364 0.000000
vn 0.000000 0.000000 1.000000
vn 0.000000 0.000000 1.000000
vn 0.000000 0.000000 1.000000
vn 0.000000 0.000000 1.000000
vn 0.000000 0.000000 1.000000
vn 0.000000 0.000000 1.000000
vn 0.000000 0.000000 1.000000
vn 0.000000 0.000000 1.000000
vn 0.000000 0.000000 1.000000
vn 0.000000 0.000000 1.000000
vn 0.000000 0.000000 1.000000
vn 0.000000 0.000000 1.000000
vn 0.000000 0.000000 1.000000
vn 0.000000 0.000000 1.000000
vn 0.000000 0.000000 1.000000
vn 0.000000 0.000000 1.000000
vn 0.000000 1.000000 0.000000
vn 0.000000 1.000000 0.000000
vn 0.000000 1.000000 0.000000
vn 0.000000 1.000000 0.000000
vn 0.000000 1.000000 0.000000
vn 0.000000 1.000000 0.000000
vn 0.000000 1.000000 0.000000
vn 0.000000 1.000000 0.000000
vn 0.000000 0.000000 -1.000000
vn 0.000000 0.000000 -1.000000
vn 0.000000 0.000000 -1.000000
vn 0.000000 0.000000 -1.000000
vn 0.000000 0.000000 -1.000000
vn 0.000000 0.000000 -1.000000
vn 0.000000 0.000000 -1.000000
vn 0.000000 0.000000 -1.000000
vn 0.000000 0.000000 -1.000000
vn 0.000000 0.000000 -1.000000
vn 0.000000 0.000000 -1.000000
vn 0.000000 0.000000 -1.000000
vn 0.000000 0.000000 -1.000000
vn 0.000000 0.000000 -1.000000
vn 0.000000 0.000000 -1.000000
vn 0.000000 0.000000 -1.000000
vn 0.000000 -1.000000 0.000000
vn 0.000000 -1.000000 0.000000
vn 0.000000 -1.000000 0.000000
vn 0.000000 -1.000000 0.000000
vn 0.000000 -1.000000 0.000000
vn 0.000000 -1.000000 0.000000
vn 0.000000 -1.000000 0.000000
vn 0.000000 -1.000000 0.000000
vn 1.000000 0.000000 0.000000
vn 1.000000 0.000000 0.000000
vn 1.000000 0.000000 0.000000
vn 1.000000 0.000000 0.000000
vn 1.000000 0.000000 0.000000
vn 1.000000 0.000000 0.000000
vn 1.000000 0.000000 0.000000
vn 1.000000 0.000000 0.000000
vn -1.000000 0.000000 0.000000
vn -1.000000 0.000000 0.000000
vn -1.000000 0.000000 0.000000
vn -1.000000 0.000000 0.000000
vn -1.000000 0.000000 0.000000
vn -1.000000 0.000000 0.000000
vn -1.000000 0.000000 0.000000
vn -1.000000 0.000000 0.000000
vn 1.000000 0.000000 0.000000
vn 1.000000 0.000000 0.000000
vn 1.000000 0.000000 0.000000
vn 1.000000 0.000000 0.000000
vn 0.999663 -0.025960 0.000000
vn 0.999663 -0.025960 0.000000
vn 0.999663 -0.025960 0.000000
vn 0.999663 -0.025960 0.000000
vn -0.999951 -0.009901 0.000000
vn -0.999951 -0.009902 0.000000
vn -0.999951 -0.009901 0.000000
vn -0.999951 -0.009902 0.000000
vn -1.000000 0.000000 0.000000
vn -1.000000 0.000000 0.000000
vn -1.000000 0.000000 0.000000
vn -1.000000 0.000000 0.000000
vn 0.000000 -1.000000 0.000000
vn 0.000000 -1.000000 0.000000
vn 0.000000 -1.000000 0.000000
vn 0.000000 -1.000000 0.000000
s 1
g pCube21
usemtl lambert38SG
f 1/1/1 2/2/2 4/4/3
f 4/4/3 2/2/2 5/3/4
f 3/5/5 6/6/6 2/2/2
f 2/2/2 6/6/6 5/3/4
s 2
f 4/4/7 5/3/8 7/8/9
f 7/8/9 5/3/8 8/7/10
f 5/3/8 6/6/11 8/7/10
f 8/7/10 6/6/11 9/9/12
s 3
f 8/7/13 11/10/14 7/8/15
f 7/8/15 11/10/14 10/11/16
f 8/7/13 9/9/17 11/10/14
f 11/10/14 9/9/17 12/12/18
s 4
f 10/11/19 11/10/20 1/1/21
f 1/1/21 11/10/20 2/2/22
f 11/10/20 12/12/23 2/2/22
f 2/2/22 12/12/23 3/5/24
s 5
f 3/5/25 12/12/26 6/6/27
f 6/6/27 12/12/26 9/9/28
s 6
f 10/11/29 1/1/30 7/8/31
f 7/8/31 1/1/30 4/4/32
s 7
f 18/13/33 17/14/34 19/15/35
f 17/14/34 20/16/36 19/15/35
s 8
f 21/63/37 22/64/38 23/65/39
f 22/64/38 24/66/40 23/65/39
s 9
f 13/21/41 16/22/42 18/13/43
f 18/13/43 16/22/42 17/14/44
f 17/14/44 16/22/42 20/16/45
f 20/16/45 16/22/42 15/23/46
s 10
f 13/21/47 14/24/48 21/17/49
f 21/17/49 14/24/48 22/18/50
s 11
f 16/22/51 13/21/52 23/19/53
f 23/19/53 13/21/52 21/17/54
s 12
f 14/24/55 15/23/56 22/18/57
f 22/18/57 15/23/56 24/20/58
s 13
f 15/23/59 16/22/60 24/20/61
f 24/20/61 16/22/60 23/19/62
s 14
f 46/26/63 29/27/64 45/25/65
f 29/27/64 27/28/66 45/25/65
f 45/25/65 27/28/66 47/30/67
f 27/28/66 25/29/68 47/30/67
f 30/32/69 48/33/70 28/31/71
f 48/33/70 49/34/72 28/31/71
f 28/31/71 49/34/72 26/36/73
f 49/34/72 50/35/74 26/36/73
f 29/27/64 46/26/63 31/38/75
f 31/38/75 46/26/63 32/37/76
f 46/26/63 48/33/70 32/37/76
f 32/37/76 48/33/70 33/39/77
f 48/33/70 30/32/69 33/39/77
f 33/39/77 30/32/69 34/40/78
s 16
f 31/38/79 32/37/80 35/42/81
f 35/42/81 32/37/80 36/41/82
s 17
f 33/39/83 34/40/84 37/44/85
f 37/44/85 34/40/84 38/43/86
s 18
f 35/42/87 36/41/88 39/46/89
f 39/46/89 36/41/88 54/45/90
f 36/41/88 37/44/91 54/45/90
f 54/45/90 37/44/91 53/47/92
f 37/44/91 38/43/93 53/47/92
f 53/47/92 38/43/93 40/48/94
f 43/51/95 41/52/96 56/50/97
f 56/50/97 41/52/96 55/49/98
f 55/49/98 41/52/96 54/45/90
f 41/52/96 39/46/89 54/45/90
f 44/54/99 52/55/100 42/53/101
f 52/55/100 51/56/102 42/53/101
f 42/53/101 51/56/102 40/48/94
f 51/56/102 53/47/92 40/48/94
s 21
f 43/51/103 56/50/104 25/29/105
f 25/29/105 56/50/104 47/30/106
s 22
f 52/55/107 44/54/108 50/35/109
f 50/35/109 44/54/108 26/36/110
s 23
f 26/36/111 44/54/112 28/31/113
f 44/54/112 42/53/114 28/31/113
f 28/31/113 42/53/114 30/32/115
f 42/53/114 40/48/116 30/32/115
f 30/32/115 40/48/116 34/40/117
f 34/40/117 40/48/116 38/43/118
s 24
f 29/27/119 39/46/120 27/28/121
f 39/46/120 41/52/122 27/28/121
f 27/28/121 41/52/122 25/29/123
f 41/52/122 43/51/124 25/29/123
f 39/46/120 29/27/119 35/42/125
f 35/42/125 29/27/119 31/38/126
s 25
f 46/26/127 45/25/128 58/58/129
f 58/58/129 45/25/128 57/57/130
s 26
f 45/25/131 47/30/132 57/57/133
f 57/57/133 47/30/132 59/59/134
s 27
f 50/35/135 49/34/136 60/61/137
f 60/61/137 49/34/136 61/60/138
s 28
f 49/34/139 48/33/140 61/60/141
f 61/60/141 48/33/140 62/62/142
s 29
f 48/33/143 46/26/144 62/62/145
f 62/62/145 46/26/144 58/58/146
