# This file uses centimeters as units for non-parametric coordinates.

mtllib piso.mtl
g default
v -4.984442 -0.000086 3.861981
v -1.229283 -0.000086 3.861981
v 0.587198 -0.000086 3.861981
v 4.984442 -0.000086 3.861981
v -4.984442 0.110252 3.861981
v -1.229283 0.110252 3.861981
v 0.587198 0.110252 3.861981
v 4.984442 0.110252 3.861981
v -4.984442 0.110252 -3.861981
v -1.229283 0.110252 -3.861981
v 0.587198 0.110252 -3.861981
v 4.984442 0.110252 -3.861981
v -4.984442 -0.000086 -3.861981
v -1.229283 -0.000086 -3.861981
v 0.587198 -0.000086 -3.861981
v 4.984442 -0.000086 -3.861981
vt 0.375000 0.000000
vt 0.458333 0.000000
vt 0.541667 0.000000
vt 0.625000 0.000000
vt 0.375000 0.250000
vt 0.458333 0.250000
vt 0.541667 0.250000
vt 0.625000 0.250000
vt 0.375000 0.500000
vt 0.458333 0.500000
vt 0.541667 0.500000
vt 0.625000 0.500000
vt 0.375000 0.750000
vt 0.458333 0.750000
vt 0.541667 0.750000
vt 0.625000 0.750000
vt 0.375000 1.000000
vt 0.458333 1.000000
vt 0.541667 1.000000
vt 0.625000 1.000000
vt 0.875000 0.000000
vt 0.875000 0.250000
vt 0.125000 0.000000
vt 0.125000 0.250000
vt -0.000000 -0.000000
vt 1.000000 -0.000000
vt -0.000000 1.000000
vt 1.000000 1.000000
vn 0.000000 0.000000 1.000000
vn 0.000000 0.000000 1.000000
vn 0.000000 0.000000 1.000000
vn 0.000000 0.000000 1.000000
vn 0.000000 0.000000 1.000000
vn -0.000000 0.000000 1.000000
vn -0.000000 0.000000 1.000000
vn -0.000000 0.000000 1.000000
vn 0.000000 1.000000 0.000000
vn 0.000000 1.000000 0.000000
vn 0.000000 1.000000 0.000000
vn 0.000000 1.000000 0.000000
vn -0.000000 1.000000 0.000000
vn -0.000000 1.000000 0.000000
vn -0.000000 1.000000 0.000000
vn -0.000000 1.000000 0.000000
vn 0.000000 0.000000 -1.000000
vn 0.000000 0.000000 -1.000000
vn 0.000000 0.000000 -1.000000
vn 0.000000 0.000000 -1.000000
vn 0.000000 0.000000 -1.000000
vn 0.000000 0.000000 -1.000000
vn 0.000000 0.000000 -1.000000
vn 0.000000 0.000000 -1.000000
vn -0.000000 -1.000000 0.000000
vn -0.000000 -1.000000 0.000000
vn -0.000000 -1.000000 0.000000
vn -0.000000 -1.000000 0.000000
vn 0.000000 -1.000000 0.000000
vn 0.000000 -1.000000 0.000000
vn 0.000000 -1.000000 0.000000
vn 0.000000 -1.000000 0.000000
vn 1.000000 0.000000 0.000000
vn 1.000000 0.000000 0.000000
vn 1.000000 0.000000 0.000000
vn 1.000000 0.000000 0.000000
vn -1.000000 0.000000 0.000000
vn -1.000000 0.000000 0.000000
vn -1.000000 0.000000 0.000000
vn -1.000000 0.000000 0.000000
s 1
g pCube1
usemtl lambert4SG
f 1/1/1 2/2/2 5/5/3
f 5/5/3 2/2/2 6/6/4
f 2/2/2 3/3/5 6/6/4
f 6/6/4 3/3/5 7/7/6
f 3/3/5 4/4/7 7/7/6
f 7/7/6 4/4/7 8/8/8
s 2
usemtl lambert70SG
f 5/25/9 6/26/10 9/27/11
f 9/27/11 6/26/10 10/28/12
usemtl lambert4SG
f 6/6/10 7/7/13 10/10/12
f 10/10/12 7/7/13 11/11/14
f 7/7/13 8/8/15 11/11/14
f 11/11/14 8/8/15 12/12/16
s 3
f 9/9/17 10/10/18 13/13/19
f 13/13/19 10/10/18 14/14/20
f 10/10/18 11/11/21 14/14/20
f 14/14/20 11/11/21 15/15/22
f 11/11/21 12/12/23 15/15/22
f 15/15/22 12/12/23 16/16/24
s 4
f 13/13/25 14/14/26 1/17/27
f 1/17/27 14/14/26 2/18/28
f 14/14/26 15/15/29 2/18/28
f 2/18/28 15/15/29 3/19/30
f 15/15/29 16/16/31 3/19/30
f 3/19/30 16/16/31 4/20/32
s 5
f 4/4/33 16/21/34 8/8/35
f 8/8/35 16/21/34 12/22/36
s 6
f 13/23/37 1/1/38 9/24/39
f 9/24/39 1/1/38 5/5/40
g default
v -4.984442 -0.000086 3.861981
v -1.211752 -0.000086 3.861981
v 0.587198 -0.000086 3.861981
v 4.984442 -0.000086 3.861981
v -4.984442 0.110252 3.861981
v -1.211752 0.110252 3.861981
v 0.587198 0.110252 3.861981
v 4.984442 0.110252 3.861981
v -4.984442 0.110252 -3.861981
v -1.211752 0.110252 -3.861981
v 0.587198 0.110252 -3.861981
v 4.984442 0.110252 -3.861981
v -4.984442 -0.000086 -3.861981
v -1.211752 -0.000086 -3.861981
v 0.587198 -0.000086 -3.861981
v 4.984442 -0.000086 -3.861981
vt 0.375000 0.000000
vt 0.458333 0.000000
vt 0.541667 0.000000
vt 0.625000 0.000000
vt 0.375000 0.250000
vt 0.458333 0.250000
vt 0.541667 0.250000
vt 0.625000 0.250000
vt 0.375000 0.500000
vt 0.458333 0.500000
vt 0.541667 0.500000
vt 0.625000 0.500000
vt 0.375000 0.750000
vt 0.458333 0.750000
vt 0.541667 0.750000
vt 0.625000 0.750000
vt 0.375000 1.000000
vt 0.458333 1.000000
vt 0.541667 1.000000
vt 0.625000 1.000000
vt 0.875000 0.000000
vt 0.875000 0.250000
vt 0.125000 0.000000
vt 0.125000 0.250000
vn 0.000000 0.000000 1.000000
vn 0.000000 0.000000 1.000000
vn 0.000000 0.000000 1.000000
vn 0.000000 0.000000 1.000000
vn 0.000000 0.000000 1.000000
vn 0.000000 0.000000 1.000000
vn 0.000000 0.000000 1.000000
vn 0.000000 0.000000 1.000000
vn 0.000000 1.000000 0.000000
vn 0.000000 1.000000 0.000000
vn 0.000000 1.000000 0.000000
vn 0.000000 1.000000 0.000000
vn -0.000000 1.000000 0.000000
vn -0.000000 1.000000 0.000000
vn -0.000000 1.000000 0.000000
vn -0.000000 1.000000 0.000000
vn 0.000000 0.000000 -1.000000
vn 0.000000 0.000000 -1.000000
vn 0.000000 0.000000 -1.000000
vn 0.000000 0.000000 -1.000000
vn 0.000000 0.000000 -1.000000
vn 0.000000 0.000000 -1.000000
vn 0.000000 0.000000 -1.000000
vn 0.000000 0.000000 -1.000000
vn -0.000000 -1.000000 0.000000
vn -0.000000 -1.000000 0.000000
vn -0.000000 -1.000000 0.000000
vn -0.000000 -1.000000 0.000000
vn 0.000000 -1.000000 0.000000
vn 0.000000 -1.000000 0.000000
vn 0.000000 -1.000000 0.000000
vn 0.000000 -1.000000 0.000000
vn 1.000000 0.000000 0.000000
vn 1.000000 0.000000 0.000000
vn 1.000000 0.000000 0.000000
vn 1.000000 0.000000 0.000000
vn -1.000000 0.000000 0.000000
vn -1.000000 0.000000 0.000000
vn -1.000000 0.000000 0.000000
vn -1.000000 0.000000 0.000000
s 1
g pasted__pCube1 group11
usemtl lambert5SG
f 17/29/41 18/30/42 22/34/43 21/33/44
f 18/30/42 19/31/45 23/35/46 22/34/43
f 19/31/45 20/32/47 24/36/48 23/35/46
s 2
f 21/33/49 22/34/50 26/38/51 25/37/52
f 22/34/50 23/35/53 27/39/54 26/38/51
f 23/35/53 24/36/55 28/40/56 27/39/54
s 3
f 25/37/57 26/38/58 30/42/59 29/41/60
f 26/38/58 27/39/61 31/43/62 30/42/59
f 27/39/61 28/40/63 32/44/64 31/43/62
s 4
f 29/41/65 30/42/66 18/46/67 17/45/68
f 30/42/66 31/43/69 19/47/70 18/46/67
f 31/43/69 32/44/71 20/48/72 19/47/70
s off
f 20/32/73 32/49/74 28/50/75 24/36/76
f 29/51/77 17/29/78 21/33/79 25/52/80
