# This file uses centimeters as units for non-parametric coordinates.

mtllib puertafueraizq.mtl
g default
v -5.067420 -0.000107 1.578605
v -4.876263 -0.000107 1.578605
v -5.067420 0.674631 1.578605
v -4.876263 0.674631 1.578605
v -5.067420 1.877989 1.578605
v -4.876263 1.877989 1.578605
v -5.067420 2.024106 1.578605
v -4.876263 2.024106 1.578605
v -5.067420 2.024106 1.490376
v -4.876263 2.024106 1.490376
v -5.067420 2.024106 0.738025
v -4.876263 2.024106 0.738025
v -5.067420 2.024106 0.638147
v -4.876263 2.024106 0.638147
v -5.067420 1.877989 0.638147
v -4.876263 1.877989 0.638147
v -5.067420 0.674631 0.638147
v -4.876263 0.674631 0.638147
v -5.067420 -0.000107 0.638147
v -4.876263 -0.000107 0.638147
v -5.067420 -0.000107 0.738025
v -4.876263 -0.000107 0.738025
v -5.067420 -0.000107 1.490376
v -4.876263 -0.000107 1.488016
v -4.876263 0.674631 0.738025
v -4.876263 0.674631 1.490376
v -4.876263 1.877989 0.738025
v -4.876263 1.877989 1.490376
v -5.067420 0.674631 0.738025
v -5.067420 0.674631 1.490376
v -5.067420 1.877989 0.738025
v -5.067420 1.877989 1.490376
v -5.006166 0.674631 1.490376
v -5.006166 1.877989 1.490376
v -5.006166 1.877989 0.738025
v -5.006166 0.674631 0.738025
v -5.006166 -0.000107 0.738025
v -5.006166 -0.000107 1.490376
vt 0.375000 0.000000
vt 0.625000 0.000000
vt 0.375000 0.083333
vt 0.625000 0.083333
vt 0.375000 0.166667
vt 0.625000 0.166667
vt 0.375000 0.250000
vt 0.625000 0.250000
vt 0.375000 0.333333
vt 0.625000 0.333333
vt 0.375000 0.416667
vt 0.625000 0.416667
vt 0.375000 0.500000
vt 0.625000 0.500000
vt 0.655108 0.402187
vt 0.655108 0.402187
vt 0.655108 0.389823
vt 0.655108 0.389823
vt 0.655108 0.288000
vt 0.655108 0.230907
vt 0.655108 0.230907
vt 0.655108 0.288000
vt 0.375000 0.916667
vt 0.625000 0.916667
vt 0.375000 1.000000
vt 0.625000 1.000000
vt 0.875000 0.000000
vt 0.791667 0.000000
vt 0.708333 0.000000
vt 0.875000 0.083333
vt 0.791667 0.083333
vt 0.708333 0.083333
vt 0.875000 0.166667
vt 0.791667 0.166667
vt 0.708333 0.166667
vt 0.875000 0.250000
vt 0.791667 0.250000
vt 0.708333 0.250000
vt 0.893799 0.333333
vt 0.893799 0.927815
vt 1.000000 0.927815
vt 1.000000 0.333333
vt 1.000000 -0.000000
vt 0.893799 -0.000000
vt 0.093815 0.333333
vt 0.093815 0.927815
vt 0.893799 0.927815
vt 0.893799 0.333333
vt 0.893799 -0.000000
vt 0.093815 -0.000000
vt 0.000000 0.333333
vt 0.000000 0.927815
vt 0.093815 0.927815
vt 0.093815 0.333333
vt 0.093815 -0.000000
vt 0.000000 -0.000000
vt 0.893799 1.000000
vt 1.000000 1.000000
vt 0.093815 1.000000
vt 0.000000 1.000000
vt 0.359568 0.230907
vt 0.359568 0.230907
vn 0.000000 0.000000 1.000000
vn 0.000000 0.000000 1.000000
vn 0.000000 0.000000 1.000000
vn 0.000000 0.000000 1.000000
vn 0.000000 0.000000 1.000000
vn 0.000000 0.000000 1.000000
vn 0.000000 0.000000 1.000000
vn 0.000000 0.000000 1.000000
vn 0.000000 1.000000 0.000000
vn 0.000000 1.000000 0.000000
vn 0.000000 1.000000 0.000000
vn 0.000000 1.000000 0.000000
vn 0.000000 1.000000 0.000000
vn 0.000000 1.000000 0.000000
vn 0.000000 1.000000 0.000000
vn 0.000000 1.000000 0.000000
vn 0.000000 0.000000 -1.000000
vn 0.000000 0.000000 -1.000000
vn 0.000000 0.000000 -1.000000
vn 0.000000 0.000000 -1.000000
vn 0.000000 0.000000 -1.000000
vn 0.000000 0.000000 -1.000000
vn 0.000000 0.000000 -1.000000
vn 0.000000 0.000000 -1.000000
vn 0.000000 -1.000000 0.000000
vn 0.000000 -1.000000 0.000000
vn 0.000000 -1.000000 0.000000
vn 0.000000 -1.000000 0.000000
vn 0.000000 -1.000000 0.000000
vn 0.000000 -1.000000 0.000000
vn 0.000000 -1.000000 0.000000
vn 0.000000 -1.000000 0.000000
vn 1.000000 0.000000 0.000000
vn 1.000000 0.000000 0.000000
vn 1.000000 0.000000 0.000000
vn 1.000000 0.000000 0.000000
vn 1.000000 0.000000 0.000000
vn 1.000000 0.000000 0.000000
vn 1.000000 0.000000 0.000000
vn 1.000000 0.000000 0.000000
vn 1.000000 0.000000 0.000000
vn 1.000000 0.000000 0.000000
vn 1.000000 0.000000 0.000000
vn 1.000000 0.000000 0.000000
vn 1.000000 0.000000 0.000000
vn 1.000000 0.000000 0.000000
vn 1.000000 0.000000 0.000000
vn 1.000000 0.000000 0.000000
vn -1.000000 0.000000 0.000000
vn -1.000000 0.000000 0.000000
vn -1.000000 0.000000 0.000000
vn -1.000000 0.000000 0.000000
vn -1.000000 0.000000 0.000000
vn -1.000000 0.000000 0.000000
vn -1.000000 0.000000 0.000000
vn -1.000000 0.000000 0.000000
vn -1.000000 0.000000 0.000000
vn -1.000000 0.000000 0.000000
vn -1.000000 0.000000 0.000000
vn -1.000000 0.000000 0.000000
vn -1.000000 0.000000 0.000000
vn -1.000000 0.000000 0.000000
vn -1.000000 0.000000 0.000000
vn -1.000000 0.000000 0.000000
vn -1.000000 0.000000 0.000000
vn -1.000000 0.000000 0.000000
vn -1.000000 0.000000 0.000000
vn -1.000000 0.000000 0.000000
vn -1.000000 0.000000 0.000000
vn -1.000000 0.000000 0.000000
vn 0.000000 0.000000 -1.000000
vn 0.000000 0.000000 -1.000000
vn 0.000000 0.000000 -1.000000
vn 0.000000 0.000000 -1.000000
vn 0.000000 -1.000000 0.000000
vn 0.000000 -1.000000 0.000000
vn 0.000000 -1.000000 0.000000
vn 0.000000 -1.000000 0.000000
vn 0.000000 0.000000 1.000000
vn 0.000000 0.000000 1.000000
vn 0.000000 0.000000 1.000000
vn 0.000000 0.000000 1.000000
vn 0.000000 0.000000 1.000000
vn 0.000000 0.000000 1.000000
vn 0.000000 0.000000 1.000000
vn 0.000000 0.000000 1.000000
vn 0.000000 1.000000 0.000000
vn 0.000000 1.000000 0.000000
vn 0.000000 1.000000 0.000000
vn 0.000000 1.000000 0.000000
vn 0.000000 -0.000000 -1.000000
vn 0.000000 -0.000000 -1.000000
vn 0.000000 -0.000000 -1.000000
vn 0.000000 -0.000000 -1.000000
s 1
g pCube22
usemtl lambert37SG
f 6/6/1 5/5/2 4/4/3
f 5/5/2 3/3/4 4/4/3
f 4/4/3 3/3/4 2/2/5
f 3/3/4 1/1/6 2/2/5
f 5/5/2 6/6/1 7/7/7
f 7/7/7 6/6/1 8/8/8
s 2
f 7/7/9 8/8/10 9/9/11
f 9/9/11 8/8/10 10/10/12
f 9/9/11 10/10/12 11/11/13
f 11/11/13 10/10/12 12/12/14
f 11/11/13 12/12/14 13/13/15
f 13/13/15 12/12/14 14/14/16
s 3
f 13/15/17 14/16/18 15/18/19
f 15/18/19 14/16/18 16/17/20
f 20/20/21 19/21/22 18/19/23
f 19/21/22 17/22/24 18/19/23
f 18/19/23 17/22/24 16/17/20
f 17/22/24 15/18/19 16/17/20
s 5
f 19/21/25 20/20/26 21/62/27
f 21/62/27 20/20/26 22/61/28
s 6
f 23/23/29 24/24/30 1/25/31
f 1/25/31 24/24/30 2/26/32
s 7
f 22/28/33 20/27/34 25/31/35
f 20/27/34 18/30/36 25/31/35
f 25/31/35 18/30/36 27/34/37
f 18/30/36 16/33/38 27/34/37
f 22/28/33 25/31/35 24/29/39
f 24/29/39 25/31/35 26/32/40
f 26/32/40 25/31/35 28/35/41
f 25/31/35 27/34/37 28/35/41
f 2/2/42 24/29/39 4/4/43
f 24/29/39 26/32/40 4/4/43
f 4/4/43 26/32/40 6/6/44
f 26/32/40 28/35/41 6/6/44
f 27/34/37 16/33/38 12/37/45
f 12/37/45 16/33/38 14/36/46
f 28/35/41 27/34/37 10/38/47
f 10/38/47 27/34/37 12/37/45
f 6/6/44 28/35/41 8/8/48
f 8/8/48 28/35/41 10/38/47
s 8
f 31/40/49 15/41/50 29/39/51
f 15/41/50 17/42/52 29/39/51
f 29/39/51 17/42/52 21/44/53
f 17/42/52 19/43/54 21/44/53
s 9
f 34/46/55 35/47/56 33/45/57
f 35/47/56 36/48/58 33/45/57
f 33/45/57 36/48/58 38/50/59
f 36/48/58 37/49/60 38/50/59
s 8
f 5/52/61 32/53/62 3/51/63
f 32/53/62 30/54/64 3/51/63
f 3/51/63 30/54/64 1/56/65
f 30/54/64 23/55/66 1/56/65
f 15/41/50 31/40/49 13/58/67
f 13/58/67 31/40/49 11/57/68
f 31/40/49 32/53/62 11/57/68
f 11/57/68 32/53/62 9/59/69
f 32/53/62 5/52/61 9/59/69
f 9/59/69 5/52/61 7/60/70
s 11
f 30/54/71 32/53/72 33/45/73
f 33/45/73 32/53/72 34/46/74
s 12
f 32/53/75 31/40/76 34/46/77
f 34/46/77 31/40/76 35/47/78
s 13
f 31/40/79 29/39/80 35/47/81
f 35/47/81 29/39/80 36/48/82
s 14
f 29/39/83 21/44/84 36/48/85
f 36/48/85 21/44/84 37/49/86
s 15
f 21/44/87 23/55/88 37/49/89
f 37/49/89 23/55/88 38/50/90
s 16
f 23/55/91 30/54/92 38/50/93
f 38/50/93 30/54/92 33/45/94
