# This file uses centimeters as units for non-parametric coordinates.

mtllib techocasitader.mtl
g default
v 4.957238 1.884619 1.602765
v 7.627410 1.884619 1.602765
v 4.957238 1.994619 1.602765
v 7.627410 1.994619 1.602765
v 4.957238 3.070731 0.013585
v 7.627410 3.070731 0.013585
v 4.957238 1.994619 -1.575596
v 7.627410 1.994619 -1.575596
v 4.949544 1.884619 -1.575596
v 7.627410 1.884619 -1.575596
v 4.955142 2.960731 0.013585
v 7.627410 2.960731 0.013585
vt 0.375000 0.000000
vt 0.625000 0.000000
vt 0.375000 0.250000
vt 0.625000 0.250000
vt 0.375000 0.375000
vt 0.625000 0.375000
vt 0.375000 0.500000
vt 0.625000 0.500000
vt 0.375000 0.750000
vt 0.625000 0.750000
vt 0.375000 0.875000
vt 0.625000 0.875000
vt 0.375000 1.000000
vt 0.625000 1.000000
vt 0.875000 0.000000
vt 0.750000 0.000000
vt 0.875000 0.250000
vt 0.750000 0.250000
vt 0.125000 0.000000
vt 0.250000 0.000000
vt 0.125000 0.250000
vt 0.250000 0.250000
vn 0.000000 0.000000 1.000000
vn 0.000000 0.000000 1.000000
vn 0.000000 0.000000 1.000000
vn 0.000000 0.000000 1.000000
vn 0.000000 0.828022 0.560695
vn 0.000000 0.828022 0.560695
vn 0.000000 1.000000 -0.000000
vn 0.000000 1.000000 0.000000
vn 0.000000 0.828022 -0.560695
vn 0.000000 0.828022 -0.560695
vn 0.000000 0.000000 -1.000000
vn 0.000000 0.000000 -1.000000
vn 0.000000 0.000000 -1.000000
vn 0.000000 0.000000 -1.000000
vn 0.000000 -0.828022 0.560695
vn 0.000000 -0.828022 0.560695
vn 0.000000 -1.000000 0.000113
vn 0.000000 -1.000000 0.000018
vn 0.000000 -0.828022 -0.560695
vn 0.000000 -0.828022 -0.560695
vn 1.000000 0.000000 0.000000
vn 1.000000 0.000000 0.000000
vn 1.000000 0.000000 0.000000
vn 1.000000 0.000000 0.000000
vn 1.000000 0.000000 0.000000
vn 1.000000 0.000000 0.000000
vn -0.996610 0.069706 -0.043690
vn -0.999818 0.019077 -0.000040
vn -0.996620 0.069612 -0.043632
vn -0.999819 0.019047 0.000000
vn -0.999999 0.000000 0.001319
vn -0.999999 0.000036 0.001340
s 1
g pasted__pasted__pCube12 pasted__group19 group20
usemtl lambert68SG
f 1/1/1 2/2/2 3/3/3
f 3/3/3 2/2/2 4/4/4
s 2
f 3/3/5 4/4/6 5/5/7
f 5/5/7 4/4/6 6/6/8
f 5/5/7 6/6/8 7/7/9
f 7/7/9 6/6/8 8/8/10
s 3
f 8/8/11 10/10/12 7/7/13
f 7/7/13 10/10/12 9/9/14
s 4
f 9/9/15 10/10/16 11/11/17
f 11/11/17 10/10/16 12/12/18
f 11/11/17 12/12/18 1/13/19
f 1/13/19 12/12/18 2/14/20
s 5
f 10/15/21 8/17/22 12/16/23
f 12/16/23 8/17/22 6/18/24
f 2/2/25 12/16/23 4/4/26
f 4/4/26 12/16/23 6/18/24
s 6
f 9/19/27 11/20/28 7/21/29
f 7/21/29 11/20/28 5/22/30
f 1/1/31 3/3/32 11/20/28
f 11/20/28 3/3/32 5/22/30
g default
v 4.957238 1.884619 1.602765
v 7.627410 1.884619 1.602765
v 4.957238 1.994619 1.602765
v 7.627410 1.994619 1.602765
v 4.957238 3.070731 0.013585
v 7.627410 3.070731 0.013585
v 4.957238 1.994619 -1.575596
v 7.627410 1.994619 -1.575596
v 4.949544 1.884619 -1.575596
v 7.627410 1.884619 -1.575596
v 4.955142 2.960731 0.013585
v 7.627410 2.960731 0.013585
vt 0.375000 0.000000
vt 0.625000 0.000000
vt 0.375000 0.250000
vt 0.625000 0.250000
vt 0.375000 0.375000
vt 0.625000 0.375000
vt 0.375000 0.500000
vt 0.625000 0.500000
vt 0.375000 0.750000
vt 0.625000 0.750000
vt 0.375000 0.875000
vt 0.625000 0.875000
vt 0.375000 1.000000
vt 0.625000 1.000000
vt 0.875000 0.000000
vt 0.750000 0.000000
vt 0.875000 0.250000
vt 0.750000 0.250000
vt 0.125000 0.000000
vt 0.250000 0.000000
vt 0.125000 0.250000
vt 0.250000 0.250000
vn 0.000000 0.000000 1.000000
vn 0.000000 0.000000 1.000000
vn 0.000000 0.000000 1.000000
vn 0.000000 0.000000 1.000000
vn 0.000000 0.828022 0.560695
vn 0.000000 0.828022 0.560695
vn 0.000000 1.000000 -0.000000
vn 0.000000 1.000000 0.000000
vn 0.000000 0.828022 -0.560695
vn 0.000000 0.828022 -0.560695
vn 0.000000 0.000000 -1.000000
vn 0.000000 0.000000 -1.000000
vn 0.000000 0.000000 -1.000000
vn 0.000000 0.000000 -1.000000
vn 0.000000 -0.828022 0.560695
vn 0.000000 -0.828022 0.560695
vn 0.000000 -1.000000 0.000113
vn 0.000000 -1.000000 0.000018
vn 0.000000 -0.828022 -0.560695
vn 0.000000 -0.828022 -0.560695
vn 1.000000 0.000000 0.000000
vn 1.000000 0.000000 0.000000
vn 1.000000 0.000000 0.000000
vn 1.000000 0.000000 0.000000
vn 1.000000 0.000000 0.000000
vn 1.000000 0.000000 0.000000
vn -0.996610 0.069706 -0.043690
vn -0.999818 0.019077 -0.000040
vn -0.996620 0.069612 -0.043632
vn -0.999819 0.019047 0.000000
vn -0.999999 0.000000 0.001319
vn -0.999999 0.000036 0.001340
s 1
g pasted__pasted__pCube12 pasted__group19 group20
f 13/23/33 14/24/34 15/25/35
f 15/25/35 14/24/34 16/26/36
s 2
f 15/25/37 16/26/38 17/27/39
f 17/27/39 16/26/38 18/28/40
f 17/27/39 18/28/40 19/29/41
f 19/29/41 18/28/40 20/30/42
s 3
f 20/30/43 22/32/44 19/29/45
f 19/29/45 22/32/44 21/31/46
s 4
f 21/31/47 22/32/48 23/33/49
f 23/33/49 22/32/48 24/34/50
f 23/33/49 24/34/50 13/35/51
f 13/35/51 24/34/50 14/36/52
s 5
f 22/37/53 20/39/54 24/38/55
f 24/38/55 20/39/54 18/40/56
f 14/24/57 24/38/55 16/26/58
f 16/26/58 24/38/55 18/40/56
s 6
f 21/41/59 23/42/60 19/43/61
f 19/43/61 23/42/60 17/44/62
f 13/23/63 15/25/64 23/42/60
f 23/42/60 15/25/64 17/44/62
