# This file uses centimeters as units for non-parametric coordinates.

mtllib microwave.mtl
g default
v -2.244804 0.741718 3.604581
v -2.080257 0.741718 3.604581
v -1.664436 0.741718 3.604581
v -1.618819 0.741718 3.604581
v -2.244804 0.781484 3.604581
v -2.080257 0.781484 3.604581
v -1.664436 0.781484 3.604581
v -1.618819 0.781484 3.604581
v -2.244804 1.050912 3.604581
v -2.080257 1.050912 3.604581
v -1.664436 1.050912 3.604581
v -1.618819 1.050912 3.604581
v -2.244804 1.086577 3.604581
v -2.080257 1.086577 3.604581
v -1.664436 1.086577 3.604581
v -1.618819 1.086577 3.604581
v -2.244804 1.086577 3.259117
v -2.080257 1.086577 3.259117
v -1.664436 1.086577 3.259117
v -1.618819 1.086577 3.259117
v -2.244804 1.050912 3.259117
v -2.080257 1.050912 3.259117
v -1.664436 1.050912 3.259117
v -1.618819 1.050912 3.259117
v -2.244804 0.781484 3.259117
v -2.080257 0.781484 3.259117
v -1.664436 0.781484 3.259117
v -1.618819 0.781484 3.259117
v -2.244804 0.741718 3.259117
v -2.080257 0.741718 3.259117
v -1.664436 0.741718 3.259117
v -1.618819 0.741718 3.259117
v -2.080257 1.050912 3.592347
v -1.664436 1.050912 3.592347
v -1.664436 0.781484 3.592347
v -2.080257 0.781484 3.592347
vt 0.375000 0.000000
vt 0.458333 0.000000
vt 0.541667 0.000000
vt 0.625000 0.000000
vt 0.375000 0.083333
vt 0.458333 0.083333
vt 0.541667 0.083333
vt 0.625000 0.083333
vt 0.375000 0.166667
vt 0.458333 0.166667
vt 0.541667 0.166667
vt 0.625000 0.166667
vt 0.375000 0.250000
vt 0.458333 0.250000
vt 0.541667 0.250000
vt 0.625000 0.250000
vt 0.375000 0.500000
vt 0.458333 0.500000
vt 0.024091 -0.003499
vt 0.148698 -0.003499
vt 0.375000 0.583333
vt 0.458333 0.583333
vt 0.541667 0.583333
vt 0.025567 0.974940
vt 0.375000 0.666667
vt 0.458333 0.666667
vt 0.541667 0.666667
vt 0.450681 0.974940
vt 0.375000 0.750000
vt 0.458333 0.750000
vt 0.541667 0.750000
vt 0.625000 0.750000
vt 0.375000 1.000000
vt 0.458333 1.000000
vt 0.541667 1.000000
vt 0.625000 1.000000
vt 0.875000 0.000000
vt 0.875000 0.083333
vt 0.875000 0.166667
vt 0.875000 0.250000
vt 0.125000 0.000000
vt 0.125000 0.083333
vt 0.125000 0.166667
vt 0.125000 0.250000
vt 0.458333 0.583333
vt 0.541667 0.583333
vt 0.541667 0.666667
vt 0.458333 0.666667
vt 0.529906 0.936512
vt 0.972912 0.936512
vt 0.972912 0.045794
vt 0.529906 0.045794
vt 0.450681 0.876740
vt 0.025567 0.876740
vt 0.497317 0.974940
vt 0.497317 0.876740
vt 0.497317 0.134904
vt 0.450681 0.134904
vt 0.025567 0.134904
vt 0.450681 0.025412
vt 0.025567 0.025412
vt 0.497317 0.025412
vt 0.148698 0.996501
vt 0.024091 0.996501
vt 0.463590 -0.003499
vt 0.463590 0.996501
vt 0.498135 -0.003499
vt 0.498135 0.996501
vn 0.000000 0.000000 1.000000
vn 0.000000 0.000000 1.000000
vn 0.000000 0.000000 1.000000
vn 0.000000 0.000000 1.000000
vn 0.000000 0.000000 1.000000
vn 0.000000 0.000000 1.000000
vn 0.000000 0.000000 1.000000
vn 0.000000 0.000000 1.000000
vn 0.000000 0.000000 1.000000
vn 0.000000 0.000000 1.000000
vn 0.000000 0.000000 1.000000
vn 0.000000 0.000000 1.000000
vn 0.000000 0.000000 1.000000
vn 0.000000 0.000000 1.000000
vn 0.000000 0.000000 1.000000
vn 0.000000 0.000000 1.000000
vn 0.000000 1.000000 0.000000
vn 0.000000 1.000000 0.000000
vn 0.000000 1.000000 0.000000
vn 0.000000 1.000000 0.000000
vn 0.000000 1.000000 0.000000
vn 0.000000 1.000000 0.000000
vn 0.000000 1.000000 0.000000
vn 0.000000 1.000000 0.000000
vn 0.000000 0.000000 -1.000000
vn 0.000000 0.000000 -1.000000
vn 0.000000 0.000000 -1.000000
vn 0.000000 0.000000 -1.000000
vn 0.000000 0.000000 -1.000000
vn 0.000000 0.000000 -1.000000
vn 0.000000 0.000000 -1.000000
vn 0.000000 0.000000 -1.000000
vn 0.000000 0.000000 -1.000000
vn 0.000000 0.000000 -1.000000
vn 0.000000 0.000000 -1.000000
vn 0.000000 0.000000 -1.000000
vn 0.000000 0.000000 -1.000000
vn 0.000000 0.000000 -1.000000
vn 0.000000 0.000000 -1.000000
vn 0.000000 0.000000 -1.000000
vn 0.000000 0.000000 -1.000000
vn 0.000000 0.000000 -1.000000
vn 0.000000 0.000000 -1.000000
vn 0.000000 0.000000 -1.000000
vn 0.000000 -1.000000 0.000000
vn 0.000000 -1.000000 0.000000
vn 0.000000 -1.000000 0.000000
vn 0.000000 -1.000000 0.000000
vn 0.000000 -1.000000 0.000000
vn 0.000000 -1.000000 0.000000
vn 0.000000 -1.000000 0.000000
vn 0.000000 -1.000000 0.000000
vn 1.000000 0.000000 0.000000
vn 1.000000 0.000000 0.000000
vn 1.000000 0.000000 0.000000
vn 1.000000 0.000000 0.000000
vn 1.000000 0.000000 0.000000
vn 1.000000 0.000000 0.000000
vn 1.000000 0.000000 0.000000
vn 1.000000 0.000000 0.000000
vn -1.000000 0.000000 0.000000
vn -1.000000 0.000000 0.000000
vn -1.000000 0.000000 0.000000
vn -1.000000 0.000000 0.000000
vn -1.000000 0.000000 0.000000
vn -1.000000 0.000000 0.000000
vn -1.000000 0.000000 0.000000
vn -1.000000 0.000000 0.000000
vn 0.000000 -1.000000 0.000000
vn 0.000000 -1.000000 0.000000
vn 0.000000 -1.000000 0.000000
vn 0.000000 -1.000000 0.000000
vn -1.000000 0.000000 0.000000
vn -1.000000 0.000000 0.000000
vn -1.000000 0.000000 0.000000
vn -1.000000 0.000000 0.000000
vn 0.000000 1.000000 0.000000
vn 0.000000 1.000000 0.000000
vn 0.000000 1.000000 0.000000
vn 0.000000 1.000000 0.000000
vn 1.000000 0.000000 0.000000
vn 1.000000 0.000000 0.000000
vn 1.000000 0.000000 0.000000
vn 1.000000 0.000000 0.000000
s 1
g pCube39
usemtl lambert78SG
f 1/1/1 2/2/2 5/5/3
f 5/5/3 2/2/2 6/6/4
f 2/2/2 3/3/5 6/6/4
f 6/6/4 3/3/5 7/7/6
f 3/3/5 4/4/7 7/7/6
f 7/7/6 4/4/7 8/8/8
f 5/5/3 6/6/4 9/9/9
f 9/9/9 6/6/4 10/10/10
f 6/6/4 7/7/6 10/10/10
f 10/10/10 7/7/6 11/11/11
f 7/7/6 8/8/8 11/11/11
f 11/11/11 8/8/8 12/12/12
f 9/9/9 10/10/10 13/13/13
f 13/13/13 10/10/10 14/14/14
f 10/10/10 11/11/11 14/14/14
f 14/14/14 11/11/11 15/15/15
f 11/11/11 12/12/12 15/15/15
f 15/15/15 12/12/12 16/16/16
s 2
f 13/19/17 14/20/18 17/64/19
f 17/64/19 14/20/18 18/63/20
f 14/20/18 15/65/21 18/63/20
f 18/63/20 15/65/21 19/66/22
f 15/65/21 16/67/23 19/66/22
f 19/66/22 16/67/23 20/68/24
s 3
f 17/17/25 18/18/26 21/21/27
f 21/21/27 18/18/26 22/22/28
f 18/24/26 19/28/29 22/54/28
f 22/54/28 19/28/29 23/53/30
f 19/28/29 20/55/31 23/53/30
f 23/53/30 20/55/31 24/56/32
f 21/49/27 22/50/28 25/52/33
f 25/52/33 22/50/28 26/51/34
s 4
f 33/45/35 34/46/36 36/48/37
f 36/48/37 34/46/36 35/47/38
s 3
f 23/53/30 24/56/32 27/58/39
f 27/58/39 24/56/32 28/57/40
f 25/25/33 26/26/34 29/29/41
f 29/29/41 26/26/34 30/30/42
f 26/59/34 27/58/39 30/61/42
f 30/61/42 27/58/39 31/60/43
f 27/58/39 28/57/40 31/60/43
f 31/60/43 28/57/40 32/62/44
s 5
f 29/29/45 30/30/46 1/33/47
f 1/33/47 30/30/46 2/34/48
f 30/30/46 31/31/49 2/34/48
f 2/34/48 31/31/49 3/35/50
f 31/31/49 32/32/51 3/35/50
f 3/35/50 32/32/51 4/36/52
s 6
f 4/4/53 32/37/54 8/8/55
f 8/8/55 32/37/54 28/38/56
f 8/8/55 28/38/56 12/12/57
f 12/12/57 28/38/56 24/39/58
f 12/12/57 24/39/58 16/16/59
f 16/16/59 24/39/58 20/40/60
s 7
f 29/41/61 1/1/62 25/42/63
f 25/42/63 1/1/62 5/5/64
f 25/42/63 5/5/64 21/43/65
f 21/43/65 5/5/64 9/9/66
f 21/43/65 9/9/66 17/44/67
f 17/44/67 9/9/66 13/13/68
s 8
f 22/22/69 23/23/70 33/45/71
f 33/45/71 23/23/70 34/46/72
s 9
f 23/23/73 27/27/74 34/46/75
f 34/46/75 27/27/74 35/47/76
s 10
f 27/27/77 26/26/78 35/47/79
f 35/47/79 26/26/78 36/48/80
s 11
f 26/26/81 22/22/82 36/48/83
f 36/48/83 22/22/82 33/45/84
g default
v -2.244804 0.741718 3.604581
v -2.080257 0.741718 3.604581
v -1.664436 0.741718 3.604581
v -1.618819 0.741718 3.604581
v -2.244804 0.781484 3.604581
v -2.080257 0.781484 3.604581
v -1.664436 0.781484 3.604581
v -1.618819 0.781484 3.604581
v -2.244804 1.050912 3.604581
v -2.080257 1.050912 3.604581
v -1.664436 1.050912 3.604581
v -1.618819 1.050912 3.604581
v -2.244804 1.086577 3.604581
v -2.080257 1.086577 3.604581
v -1.664436 1.086577 3.604581
v -1.618819 1.086577 3.604581
v -2.244804 1.086577 3.259117
v -2.080257 1.086577 3.259117
v -1.664436 1.086577 3.259117
v -1.618819 1.086577 3.259117
v -2.244804 1.050912 3.259117
v -2.080257 1.050912 3.259117
v -1.664436 1.050912 3.259117
v -1.618819 1.050912 3.259117
v -2.244804 0.781484 3.259117
v -2.080257 0.781484 3.259117
v -1.664436 0.781484 3.259117
v -1.618819 0.781484 3.259117
v -2.244804 0.741718 3.259117
v -2.080257 0.741718 3.259117
v -1.664436 0.741718 3.259117
v -1.618819 0.741718 3.259117
v -2.080257 1.050912 3.592347
v -1.664436 1.050912 3.592347
v -1.664436 0.781484 3.592347
v -2.080257 0.781484 3.592347
vt 0.375000 0.000000
vt 0.458333 0.000000
vt 0.541667 0.000000
vt 0.625000 0.000000
vt 0.375000 0.083333
vt 0.458333 0.083333
vt 0.541667 0.083333
vt 0.625000 0.083333
vt 0.375000 0.166667
vt 0.458333 0.166667
vt 0.541667 0.166667
vt 0.625000 0.166667
vt 0.375000 0.250000
vt 0.458333 0.250000
vt 0.541667 0.250000
vt 0.625000 0.250000
vt 0.375000 0.500000
vt 0.458333 0.500000
vt 0.024091 -0.003499
vt 0.148698 -0.003499
vt 0.375000 0.583333
vt 0.458333 0.583333
vt 0.541667 0.583333
vt 0.025567 0.974940
vt 0.375000 0.666667
vt 0.458333 0.666667
vt 0.541667 0.666667
vt 0.450681 0.974940
vt 0.375000 0.750000
vt 0.458333 0.750000
vt 0.541667 0.750000
vt 0.625000 0.750000
vt 0.375000 1.000000
vt 0.458333 1.000000
vt 0.541667 1.000000
vt 0.625000 1.000000
vt 0.875000 0.000000
vt 0.875000 0.083333
vt 0.875000 0.166667
vt 0.875000 0.250000
vt 0.125000 0.000000
vt 0.125000 0.083333
vt 0.125000 0.166667
vt 0.125000 0.250000
vt 0.458333 0.583333
vt 0.541667 0.583333
vt 0.541667 0.666667
vt 0.458333 0.666667
vt 0.529906 0.936512
vt 0.972912 0.936512
vt 0.972912 0.045794
vt 0.529906 0.045794
vt 0.450681 0.876740
vt 0.025567 0.876740
vt 0.497317 0.974940
vt 0.497317 0.876740
vt 0.497317 0.134904
vt 0.450681 0.134904
vt 0.025567 0.134904
vt 0.450681 0.025412
vt 0.025567 0.025412
vt 0.497317 0.025412
vt 0.148698 0.996501
vt 0.024091 0.996501
vt 0.463590 -0.003499
vt 0.463590 0.996501
vt 0.498135 -0.003499
vt 0.498135 0.996501
vn 0.000000 0.000000 1.000000
vn 0.000000 0.000000 1.000000
vn 0.000000 0.000000 1.000000
vn 0.000000 0.000000 1.000000
vn 0.000000 0.000000 1.000000
vn 0.000000 0.000000 1.000000
vn 0.000000 0.000000 1.000000
vn 0.000000 0.000000 1.000000
vn 0.000000 0.000000 1.000000
vn 0.000000 0.000000 1.000000
vn 0.000000 0.000000 1.000000
vn 0.000000 0.000000 1.000000
vn 0.000000 0.000000 1.000000
vn 0.000000 0.000000 1.000000
vn 0.000000 0.000000 1.000000
vn 0.000000 0.000000 1.000000
vn 0.000000 1.000000 0.000000
vn 0.000000 1.000000 0.000000
vn 0.000000 1.000000 0.000000
vn 0.000000 1.000000 0.000000
vn 0.000000 1.000000 0.000000
vn 0.000000 1.000000 0.000000
vn 0.000000 1.000000 0.000000
vn 0.000000 1.000000 0.000000
vn 0.000000 0.000000 -1.000000
vn 0.000000 0.000000 -1.000000
vn 0.000000 0.000000 -1.000000
vn 0.000000 0.000000 -1.000000
vn 0.000000 0.000000 -1.000000
vn 0.000000 0.000000 -1.000000
vn 0.000000 0.000000 -1.000000
vn 0.000000 0.000000 -1.000000
vn 0.000000 0.000000 -1.000000
vn 0.000000 0.000000 -1.000000
vn 0.000000 0.000000 -1.000000
vn 0.000000 0.000000 -1.000000
vn 0.000000 0.000000 -1.000000
vn 0.000000 0.000000 -1.000000
vn 0.000000 0.000000 -1.000000
vn 0.000000 0.000000 -1.000000
vn 0.000000 0.000000 -1.000000
vn 0.000000 0.000000 -1.000000
vn 0.000000 0.000000 -1.000000
vn 0.000000 0.000000 -1.000000
vn 0.000000 -1.000000 0.000000
vn 0.000000 -1.000000 0.000000
vn 0.000000 -1.000000 0.000000
vn 0.000000 -1.000000 0.000000
vn 0.000000 -1.000000 0.000000
vn 0.000000 -1.000000 0.000000
vn 0.000000 -1.000000 0.000000
vn 0.000000 -1.000000 0.000000
vn 1.000000 0.000000 0.000000
vn 1.000000 0.000000 0.000000
vn 1.000000 0.000000 0.000000
vn 1.000000 0.000000 0.000000
vn 1.000000 0.000000 0.000000
vn 1.000000 0.000000 0.000000
vn 1.000000 0.000000 0.000000
vn 1.000000 0.000000 0.000000
vn -1.000000 0.000000 0.000000
vn -1.000000 0.000000 0.000000
vn -1.000000 0.000000 0.000000
vn -1.000000 0.000000 0.000000
vn -1.000000 0.000000 0.000000
vn -1.000000 0.000000 0.000000
vn -1.000000 0.000000 0.000000
vn -1.000000 0.000000 0.000000
vn 0.000000 -1.000000 0.000000
vn 0.000000 -1.000000 0.000000
vn 0.000000 -1.000000 0.000000
vn 0.000000 -1.000000 0.000000
vn -1.000000 0.000000 0.000000
vn -1.000000 0.000000 0.000000
vn -1.000000 0.000000 0.000000
vn -1.000000 0.000000 0.000000
vn 0.000000 1.000000 0.000000
vn 0.000000 1.000000 0.000000
vn 0.000000 1.000000 0.000000
vn 0.000000 1.000000 0.000000
vn 1.000000 0.000000 0.000000
vn 1.000000 0.000000 0.000000
vn 1.000000 0.000000 0.000000
vn 1.000000 0.000000 0.000000
s 1
g pCube39
f 37/69/85 38/70/86 41/73/87
f 41/73/87 38/70/86 42/74/88
f 38/70/86 39/71/89 42/74/88
f 42/74/88 39/71/89 43/75/90
f 39/71/89 40/72/91 43/75/90
f 43/75/90 40/72/91 44/76/92
f 41/73/87 42/74/88 45/77/93
f 45/77/93 42/74/88 46/78/94
f 42/74/88 43/75/90 46/78/94
f 46/78/94 43/75/90 47/79/95
f 43/75/90 44/76/92 47/79/95
f 47/79/95 44/76/92 48/80/96
f 45/77/93 46/78/94 49/81/97
f 49/81/97 46/78/94 50/82/98
f 46/78/94 47/79/95 50/82/98
f 50/82/98 47/79/95 51/83/99
f 47/79/95 48/80/96 51/83/99
f 51/83/99 48/80/96 52/84/100
s 2
f 49/87/101 50/88/102 53/132/103
f 53/132/103 50/88/102 54/131/104
f 50/88/102 51/133/105 54/131/104
f 54/131/104 51/133/105 55/134/106
f 51/133/105 52/135/107 55/134/106
f 55/134/106 52/135/107 56/136/108
s 3
f 53/85/109 54/86/110 57/89/111
f 57/89/111 54/86/110 58/90/112
f 54/92/110 55/96/113 58/122/112
f 58/122/112 55/96/113 59/121/114
f 55/96/113 56/123/115 59/121/114
f 59/121/114 56/123/115 60/124/116
f 57/117/111 58/118/112 61/120/117
f 61/120/117 58/118/112 62/119/118
s 4
f 69/113/119 70/114/120 72/116/121
f 72/116/121 70/114/120 71/115/122
s 3
f 59/121/114 60/124/116 63/126/123
f 63/126/123 60/124/116 64/125/124
f 61/93/117 62/94/118 65/97/125
f 65/97/125 62/94/118 66/98/126
f 62/127/118 63/126/123 66/129/126
f 66/129/126 63/126/123 67/128/127
f 63/126/123 64/125/124 67/128/127
f 67/128/127 64/125/124 68/130/128
s 5
f 65/97/129 66/98/130 37/101/131
f 37/101/131 66/98/130 38/102/132
f 66/98/130 67/99/133 38/102/132
f 38/102/132 67/99/133 39/103/134
f 67/99/133 68/100/135 39/103/134
f 39/103/134 68/100/135 40/104/136
s 6
f 40/72/137 68/105/138 44/76/139
f 44/76/139 68/105/138 64/106/140
f 44/76/139 64/106/140 48/80/141
f 48/80/141 64/106/140 60/107/142
f 48/80/141 60/107/142 52/84/143
f 52/84/143 60/107/142 56/108/144
s 7
f 65/109/145 37/69/146 61/110/147
f 61/110/147 37/69/146 41/73/148
f 61/110/147 41/73/148 57/111/149
f 57/111/149 41/73/148 45/77/150
f 57/111/149 45/77/150 53/112/151
f 53/112/151 45/77/150 49/81/152
s 8
f 58/90/153 59/91/154 69/113/155
f 69/113/155 59/91/154 70/114/156
s 9
f 59/91/157 63/95/158 70/114/159
f 70/114/159 63/95/158 71/115/160
s 10
f 63/95/161 62/94/162 71/115/163
f 71/115/163 62/94/162 72/116/164
s 11
f 62/94/165 58/90/166 72/116/167
f 72/116/167 58/90/166 69/113/168
