# This file uses centimeters as units for non-parametric coordinates.

mtllib cocinaintegralabajo1.mtl
g default
v -1.909987 0.107739 1.865054
v -1.309987 0.107739 1.865054
v -1.909987 0.726284 1.865054
v -1.309987 0.726284 1.865054
v -1.909987 0.726284 1.365321
v -1.309987 0.726284 1.365321
v -1.909987 0.107739 1.365321
v -1.309987 0.107739 1.365321
vt 0.503604 0.418232
vt 0.625000 0.000000
vt 0.375000 0.250000
vt 0.625000 0.250000
vt 0.375000 0.500000
vt 0.625000 0.500000
vt 0.375000 0.750000
vt 0.625000 0.750000
vt 0.375000 1.000000
vt 0.625000 1.000000
vt 0.875000 0.000000
vt 0.875000 0.250000
vt 1.000000 0.000000
vt 0.000000 0.000000
vt 0.000000 1.000000
vt 1.000000 1.000000
vt 0.500000 0.418232
vt 0.500000 0.581768
vt 0.503604 0.581768
vn 0.000000 0.000000 1.000000
vn 0.000000 0.000000 1.000000
vn 0.000000 0.000000 1.000000
vn 0.000000 0.000000 1.000000
vn 0.000000 1.000000 0.000000
vn 0.000000 1.000000 0.000000
vn 0.000000 1.000000 0.000000
vn 0.000000 1.000000 0.000000
vn 0.000000 0.000000 -1.000000
vn 0.000000 0.000000 -1.000000
vn 0.000000 0.000000 -1.000000
vn 0.000000 0.000000 -1.000000
vn 0.000000 -1.000000 0.000000
vn 0.000000 -1.000000 0.000000
vn 0.000000 -1.000000 0.000000
vn 0.000000 -1.000000 0.000000
vn 1.000000 0.000000 0.000000
vn 1.000000 0.000000 0.000000
vn 1.000000 0.000000 0.000000
vn 1.000000 0.000000 0.000000
vn -1.000000 0.000000 0.000000
vn -1.000000 0.000000 0.000000
vn -1.000000 0.000000 0.000000
vn -1.000000 0.000000 0.000000
s 1
g fridge1:fridge1:pCube3
usemtl fridge1:fridge1:lambert3SG
f 1/1/1 2/17/2 3/19/3
f 3/19/3 2/17/2 4/18/4
s 2
f 3/3/5 4/4/6 5/5/7
f 5/5/7 4/4/6 6/6/8
s 3
f 5/5/9 6/6/10 7/7/11
f 7/7/11 6/6/10 8/8/12
s 4
f 7/7/13 8/8/14 1/9/15
f 1/9/15 8/8/14 2/10/16
s 5
f 2/2/17 8/11/18 4/4/19
f 4/4/19 8/11/18 6/12/20
s 6
f 7/13/21 1/14/22 5/16/23
f 5/16/23 1/14/22 3/15/24
g default
v -1.909987 0.107739 1.865054
v -1.309987 0.107739 1.865054
v -1.909987 0.726284 1.865054
v -1.309987 0.726284 1.865054
v -1.909987 0.726284 1.365321
v -1.309987 0.726284 1.365321
v -1.909987 0.107739 1.365321
v -1.309987 0.107739 1.365321
vt 0.503604 0.418232
vt 0.625000 0.000000
vt 0.375000 0.250000
vt 0.625000 0.250000
vt 0.375000 0.500000
vt 0.625000 0.500000
vt 0.375000 0.750000
vt 0.625000 0.750000
vt 0.375000 1.000000
vt 0.625000 1.000000
vt 0.875000 0.000000
vt 0.875000 0.250000
vt 1.000000 0.000000
vt 0.000000 0.000000
vt 0.000000 1.000000
vt 1.000000 1.000000
vt 0.500000 0.418232
vt 0.500000 0.581768
vt 0.503604 0.581768
vn 0.000000 0.000000 1.000000
vn 0.000000 0.000000 1.000000
vn 0.000000 0.000000 1.000000
vn 0.000000 0.000000 1.000000
vn 0.000000 1.000000 0.000000
vn 0.000000 1.000000 0.000000
vn 0.000000 1.000000 0.000000
vn 0.000000 1.000000 0.000000
vn 0.000000 0.000000 -1.000000
vn 0.000000 0.000000 -1.000000
vn 0.000000 0.000000 -1.000000
vn 0.000000 0.000000 -1.000000
vn 0.000000 -1.000000 0.000000
vn 0.000000 -1.000000 0.000000
vn 0.000000 -1.000000 0.000000
vn 0.000000 -1.000000 0.000000
vn 1.000000 0.000000 0.000000
vn 1.000000 0.000000 0.000000
vn 1.000000 0.000000 0.000000
vn 1.000000 0.000000 0.000000
vn -1.000000 0.000000 0.000000
vn -1.000000 0.000000 0.000000
vn -1.000000 0.000000 0.000000
vn -1.000000 0.000000 0.000000
s 1
g fridge1:fridge1:pCube3
f 9/20/25 10/36/26 11/38/27
f 11/38/27 10/36/26 12/37/28
s 2
f 11/22/29 12/23/30 13/24/31
f 13/24/31 12/23/30 14/25/32
s 3
f 13/24/33 14/25/34 15/26/35
f 15/26/35 14/25/34 16/27/36
s 4
f 15/26/37 16/27/38 9/28/39
f 9/28/39 16/27/38 10/29/40
s 5
f 10/21/41 16/30/42 12/23/43
f 12/23/43 16/30/42 14/31/44
s 6
f 15/32/45 9/33/46 13/35/47
f 13/35/47 9/33/46 11/34/48
