# This file uses centimeters as units for non-parametric coordinates.

mtllib marcopuertaAcocina.mtl
g default
v -1.332205 0.063288 0.527990
v -1.152205 0.063288 0.527990
v -1.332205 0.689692 0.527990
v -1.152205 0.689692 0.527990
v -1.332205 1.859780 0.527990
v -1.152205 1.859780 0.527990
v -1.332205 1.942498 0.527990
v -1.152205 1.942498 0.527990
v -1.332205 1.942498 0.450079
v -1.152205 1.942498 0.450079
v -1.332205 1.942498 -0.251879
v -1.152205 1.942498 -0.251879
v -1.332205 1.942498 -0.327554
v -1.152205 1.942498 -0.327554
v -1.332205 1.859780 -0.327554
v -1.152205 1.859780 -0.327554
v -1.332205 0.689692 -0.327554
v -1.152205 0.689692 -0.327554
v -1.332205 0.063288 -0.327554
v -1.152205 0.063288 -0.327554
v -1.332205 0.063288 -0.251879
v -1.152205 0.063288 -0.251879
v -1.332205 0.063288 0.450079
v -1.152205 0.063288 0.450079
v -1.152205 0.689692 -0.251879
v -1.152205 0.689692 0.450079
v -1.152205 1.859780 -0.251879
v -1.152205 1.859780 0.450079
v -1.332205 0.689692 -0.251879
v -1.332205 0.689692 0.450079
v -1.332205 1.859780 -0.251879
v -1.332205 1.859780 0.450079
v -1.333223 0.063288 0.450079
v -1.333223 0.689692 0.450079
v -1.333223 0.063288 -0.251879
v -1.333223 0.689692 -0.251879
v -1.333223 1.859780 -0.251879
v -1.333223 1.859780 0.450079
v -1.330701 0.063288 0.450079
v -1.330701 0.689692 0.450079
v -1.330701 0.063288 -0.251879
v -1.330701 0.689692 -0.251879
v -1.330701 1.859780 -0.251879
v -1.330701 1.859780 0.450079
vt 0.290202 0.393323
vt 0.290202 0.791856
vt 0.290202 0.791856
vt 0.290202 0.393323
vt 0.290202 0.179970
vt 0.290202 0.179970
vt 0.290202 0.820030
vt 0.290202 0.820030
vt 0.328413 0.820030
vt 0.328413 0.820030
vt 0.672684 0.820030
vt 0.672684 0.820030
vt 0.709798 0.820030
vt 0.709798 0.820030
vt 0.709798 0.791856
vt 0.709798 0.791856
vt 0.709798 0.393323
vt 0.709798 0.179970
vt 0.709798 0.179970
vt 0.709798 0.393323
vt 0.672684 0.179970
vt 0.672684 0.179970
vt 0.328413 0.179970
vt 0.328413 0.179970
vt 0.672684 0.393323
vt 0.672684 0.791856
vt 0.328413 0.393323
vt 0.328413 0.791856
vt 0.672684 0.393323
vt 0.672684 0.791856
vt 0.328413 0.791856
vt 0.328413 0.393323
vt 0.328413 0.179970
vt 0.328413 0.393323
vt 0.672684 0.393323
vt 0.672684 0.179970
vt 0.672684 0.791856
vt 0.328413 0.791856
vt 0.328413 0.179970
vt 0.328413 0.393323
vt 0.672684 0.393323
vt 0.672684 0.179970
vt 0.672684 0.791856
vt 0.328413 0.791856
vn 0.000000 0.000000 1.000000
vn 0.000000 0.000000 1.000000
vn 0.000000 0.000000 1.000000
vn 0.000000 0.000000 1.000000
vn 0.000000 0.000000 1.000000
vn 0.000000 0.000000 1.000000
vn 0.000000 0.000000 1.000000
vn 0.000000 0.000000 1.000000
vn 0.000000 1.000000 0.000000
vn 0.000000 1.000000 0.000000
vn 0.000000 1.000000 0.000000
vn 0.000000 1.000000 0.000000
vn 0.000000 1.000000 0.000000
vn 0.000000 1.000000 0.000000
vn 0.000000 1.000000 0.000000
vn 0.000000 1.000000 0.000000
vn 0.000000 0.000000 -1.000000
vn 0.000000 0.000000 -1.000000
vn 0.000000 0.000000 -1.000000
vn 0.000000 0.000000 -1.000000
vn 0.000000 0.000000 -1.000000
vn 0.000000 0.000000 -1.000000
vn 0.000000 0.000000 -1.000000
vn 0.000000 0.000000 -1.000000
vn 0.000000 -1.000000 0.000000
vn 0.000000 -1.000000 0.000000
vn 0.000000 -1.000000 0.000000
vn 0.000000 -1.000000 0.000000
vn 0.000000 -1.000000 0.000000
vn 0.000000 -1.000000 0.000000
vn 0.000000 -1.000000 0.000000
vn 0.000000 -1.000000 0.000000
vn 1.000000 0.000000 0.000000
vn 1.000000 0.000000 0.000000
vn 1.000000 0.000000 0.000000
vn 1.000000 0.000000 0.000000
vn 1.000000 -0.000000 0.000000
vn 1.000000 0.000000 0.000000
vn 1.000000 0.000000 0.000000
vn 1.000000 0.000000 0.000000
vn 1.000000 0.000000 0.000000
vn 1.000000 0.000000 0.000000
vn 1.000000 0.000000 0.000000
vn 1.000000 -0.000000 0.000000
vn 1.000000 0.000000 0.000000
vn 1.000000 0.000000 0.000000
vn 1.000000 -0.000000 0.000000
vn 1.000000 0.000000 0.000000
vn -1.000000 0.000000 0.000000
vn -1.000000 0.000000 0.000000
vn -1.000000 0.000000 0.000000
vn -1.000000 0.000000 0.000000
vn -1.000000 0.000000 0.000000
vn -1.000000 0.000000 0.000000
vn -1.000000 0.000000 0.000000
vn -1.000000 -0.000000 0.000000
vn -1.000000 0.000000 0.000000
vn -1.000000 0.000000 0.000000
vn -1.000000 0.000000 0.000000
vn -1.000000 0.000000 0.000000
vn -1.000000 0.000000 0.000000
vn -1.000000 -0.000000 0.000000
vn -1.000000 -0.000000 0.000000
vn -1.000000 0.000000 0.000000
vn 0.000000 0.000000 -1.000000
vn 0.000000 0.000000 -1.000000
vn 0.000000 0.000000 -1.000000
vn 0.000000 0.000000 -1.000000
vn 0.000000 0.000000 1.000000
vn 0.000000 0.000000 1.000000
vn 0.000000 0.000000 1.000000
vn 0.000000 0.000000 1.000000
vn 0.000000 0.000000 1.000000
vn 0.000000 0.000000 1.000000
vn 0.000000 0.000000 1.000000
vn 0.000000 0.000000 1.000000
vn 0.000000 -1.000000 0.000000
vn 0.000000 -1.000000 0.000000
vn 0.000000 -1.000000 0.000000
vn 0.000000 -1.000000 0.000000
vn 0.000000 0.000000 -1.000000
vn 0.000000 0.000000 -1.000000
vn 0.000000 0.000000 -1.000000
vn 0.000000 0.000000 -1.000000
vn 0.000000 0.000000 1.000000
vn 0.000000 0.000000 1.000000
vn 0.000000 0.000000 1.000000
vn 0.000000 0.000000 1.000000
vn 0.000000 0.000000 -1.000000
vn 0.000000 0.000000 -1.000000
vn 0.000000 0.000000 -1.000000
vn 0.000000 0.000000 -1.000000
vn 0.000000 0.000000 -1.000000
vn 0.000000 0.000000 -1.000000
vn 0.000000 0.000000 -1.000000
vn 0.000000 0.000000 -1.000000
vn 0.000000 1.000000 0.000000
vn 0.000000 1.000000 0.000000
vn 0.000000 1.000000 0.000000
vn 0.000000 1.000000 0.000000
vn 0.000000 0.000000 1.000000
vn 0.000000 0.000000 1.000000
vn 0.000000 0.000000 1.000000
vn 0.000000 0.000000 1.000000
s 1
g pCube34
usemtl lambert74SG
f 6/2/1 5/3/2 4/1/3
f 5/3/2 3/4/4 4/1/3
f 4/1/3 3/4/4 2/6/5
f 3/4/4 1/5/6 2/6/5
f 5/3/2 6/2/1 7/8/7
f 7/8/7 6/2/1 8/7/8
s 2
f 7/8/9 8/7/10 9/10/11
f 9/10/11 8/7/10 10/9/12
f 9/10/11 10/9/12 11/12/13
f 11/12/13 10/9/12 12/11/14
f 11/12/13 12/11/14 13/14/15
f 13/14/15 12/11/14 14/13/16
s 3
f 13/14/17 14/13/18 15/16/19
f 15/16/19 14/13/18 16/15/20
f 20/18/21 19/19/22 18/17/23
f 19/19/22 17/20/24 18/17/23
f 18/17/23 17/20/24 16/15/20
f 17/20/24 15/16/19 16/15/20
s 5
f 19/19/25 20/18/26 21/22/27
f 21/22/27 20/18/26 22/21/28
s 6
f 23/23/29 24/24/30 1/5/31
f 1/5/31 24/24/30 2/6/32
s 7
f 22/21/33 20/18/34 25/25/35
f 20/18/34 18/17/36 25/25/35
f 25/25/35 18/17/36 27/26/37
f 18/17/36 16/15/38 27/26/37
f 2/6/39 24/24/40 4/1/41
f 24/24/40 26/27/42 4/1/41
f 4/1/41 26/27/42 6/2/43
f 26/27/42 28/28/44 6/2/43
f 27/26/37 16/15/38 12/11/45
f 12/11/45 16/15/38 14/13/46
f 28/28/44 27/26/37 10/9/47
f 10/9/47 27/26/37 12/11/45
f 6/2/43 28/28/44 8/7/48
f 8/7/48 28/28/44 10/9/47
s 9
f 31/30/49 15/16/50 29/29/51
f 15/16/50 17/20/52 29/29/51
f 29/29/51 17/20/52 21/22/53
f 17/20/52 19/19/54 21/22/53
f 5/3/55 32/31/56 3/4/57
f 32/31/56 30/32/58 3/4/57
f 3/4/57 30/32/58 1/5/59
f 30/32/58 23/23/60 1/5/59
f 15/16/50 31/30/49 13/14/61
f 13/14/61 31/30/49 11/12/62
f 31/30/49 32/31/56 11/12/62
f 11/12/62 32/31/56 9/10/63
f 32/31/56 5/3/55 9/10/63
f 9/10/63 5/3/55 7/8/64
s 11
f 26/27/65 24/24/66 34/34/67
f 34/34/67 24/24/66 33/33/68
s 12
f 22/21/69 25/25/70 35/36/71
f 35/36/71 25/25/70 36/35/72
s 13
f 25/25/73 27/26/74 36/35/75
f 36/35/75 27/26/74 37/37/76
s 14
f 27/26/77 28/28/78 37/37/79
f 37/37/79 28/28/78 38/38/80
s 15
f 28/28/81 26/27/82 38/38/83
f 38/38/83 26/27/82 34/34/84
s 16
f 34/34/85 33/33/86 40/40/87
f 40/40/87 33/33/86 39/39/88
s 17
f 35/36/89 36/35/90 41/42/91
f 41/42/91 36/35/90 42/41/92
s 18
f 36/35/93 37/37/94 42/41/95
f 42/41/95 37/37/94 43/43/96
s 19
f 37/37/97 38/38/98 43/43/99
f 43/43/99 38/38/98 44/44/100
s 20
f 38/38/101 34/34/102 44/44/103
f 44/44/103 34/34/102 40/40/104
g default
v -1.332205 0.063288 0.527990
v -1.152205 0.063288 0.527990
v -1.332205 0.689692 0.527990
v -1.152205 0.689692 0.527990
v -1.332205 1.859780 0.527990
v -1.152205 1.859780 0.527990
v -1.332205 1.942498 0.527990
v -1.152205 1.942498 0.527990
v -1.332205 1.942498 0.450079
v -1.152205 1.942498 0.450079
v -1.332205 1.942498 -0.251879
v -1.152205 1.942498 -0.251879
v -1.332205 1.942498 -0.327554
v -1.152205 1.942498 -0.327554
v -1.332205 1.859780 -0.327554
v -1.152205 1.859780 -0.327554
v -1.332205 0.689692 -0.327554
v -1.152205 0.689692 -0.327554
v -1.332205 0.063288 -0.327554
v -1.152205 0.063288 -0.327554
v -1.332205 0.063288 -0.251879
v -1.152205 0.063288 -0.251879
v -1.332205 0.063288 0.450079
v -1.152205 0.063288 0.450079
v -1.152205 0.689692 -0.251879
v -1.152205 0.689692 0.450079
v -1.152205 1.859780 -0.251879
v -1.152205 1.859780 0.450079
v -1.332205 0.689692 -0.251879
v -1.332205 0.689692 0.450079
v -1.332205 1.859780 -0.251879
v -1.332205 1.859780 0.450079
v -1.333223 0.063288 0.450079
v -1.333223 0.689692 0.450079
v -1.333223 0.063288 -0.251879
v -1.333223 0.689692 -0.251879
v -1.333223 1.859780 -0.251879
v -1.333223 1.859780 0.450079
v -1.330701 0.063288 0.450079
v -1.330701 0.689692 0.450079
v -1.330701 0.063288 -0.251879
v -1.330701 0.689692 -0.251879
v -1.330701 1.859780 -0.251879
v -1.330701 1.859780 0.450079
vt 0.290202 0.393323
vt 0.290202 0.791856
vt 0.290202 0.791856
vt 0.290202 0.393323
vt 0.290202 0.179970
vt 0.290202 0.179970
vt 0.290202 0.820030
vt 0.290202 0.820030
vt 0.328413 0.820030
vt 0.328413 0.820030
vt 0.672684 0.820030
vt 0.672684 0.820030
vt 0.709798 0.820030
vt 0.709798 0.820030
vt 0.709798 0.791856
vt 0.709798 0.791856
vt 0.709798 0.393323
vt 0.709798 0.179970
vt 0.709798 0.179970
vt 0.709798 0.393323
vt 0.672684 0.179970
vt 0.672684 0.179970
vt 0.328413 0.179970
vt 0.328413 0.179970
vt 0.672684 0.393323
vt 0.672684 0.791856
vt 0.328413 0.393323
vt 0.328413 0.791856
vt 0.672684 0.393323
vt 0.672684 0.791856
vt 0.328413 0.791856
vt 0.328413 0.393323
vt 0.328413 0.179970
vt 0.328413 0.393323
vt 0.672684 0.393323
vt 0.672684 0.179970
vt 0.672684 0.791856
vt 0.328413 0.791856
vt 0.328413 0.179970
vt 0.328413 0.393323
vt 0.672684 0.393323
vt 0.672684 0.179970
vt 0.672684 0.791856
vt 0.328413 0.791856
vn 0.000000 0.000000 1.000000
vn 0.000000 0.000000 1.000000
vn 0.000000 0.000000 1.000000
vn 0.000000 0.000000 1.000000
vn 0.000000 0.000000 1.000000
vn 0.000000 0.000000 1.000000
vn 0.000000 0.000000 1.000000
vn 0.000000 0.000000 1.000000
vn 0.000000 1.000000 0.000000
vn 0.000000 1.000000 0.000000
vn 0.000000 1.000000 0.000000
vn 0.000000 1.000000 0.000000
vn 0.000000 1.000000 0.000000
vn 0.000000 1.000000 0.000000
vn 0.000000 1.000000 0.000000
vn 0.000000 1.000000 0.000000
vn 0.000000 0.000000 -1.000000
vn 0.000000 0.000000 -1.000000
vn 0.000000 0.000000 -1.000000
vn 0.000000 0.000000 -1.000000
vn 0.000000 0.000000 -1.000000
vn 0.000000 0.000000 -1.000000
vn 0.000000 0.000000 -1.000000
vn 0.000000 0.000000 -1.000000
vn 0.000000 -1.000000 0.000000
vn 0.000000 -1.000000 0.000000
vn 0.000000 -1.000000 0.000000
vn 0.000000 -1.000000 0.000000
vn 0.000000 -1.000000 0.000000
vn 0.000000 -1.000000 0.000000
vn 0.000000 -1.000000 0.000000
vn 0.000000 -1.000000 0.000000
vn 1.000000 0.000000 0.000000
vn 1.000000 0.000000 0.000000
vn 1.000000 0.000000 0.000000
vn 1.000000 0.000000 0.000000
vn 1.000000 -0.000000 0.000000
vn 1.000000 0.000000 0.000000
vn 1.000000 0.000000 0.000000
vn 1.000000 0.000000 0.000000
vn 1.000000 0.000000 0.000000
vn 1.000000 0.000000 0.000000
vn 1.000000 0.000000 0.000000
vn 1.000000 -0.000000 0.000000
vn 1.000000 0.000000 0.000000
vn 1.000000 0.000000 0.000000
vn 1.000000 -0.000000 0.000000
vn 1.000000 0.000000 0.000000
vn -1.000000 0.000000 0.000000
vn -1.000000 0.000000 0.000000
vn -1.000000 0.000000 0.000000
vn -1.000000 0.000000 0.000000
vn -1.000000 0.000000 0.000000
vn -1.000000 0.000000 0.000000
vn -1.000000 0.000000 0.000000
vn -1.000000 -0.000000 0.000000
vn -1.000000 0.000000 0.000000
vn -1.000000 0.000000 0.000000
vn -1.000000 0.000000 0.000000
vn -1.000000 0.000000 0.000000
vn -1.000000 0.000000 0.000000
vn -1.000000 -0.000000 0.000000
vn -1.000000 -0.000000 0.000000
vn -1.000000 0.000000 0.000000
vn 0.000000 0.000000 -1.000000
vn 0.000000 0.000000 -1.000000
vn 0.000000 0.000000 -1.000000
vn 0.000000 0.000000 -1.000000
vn 0.000000 0.000000 1.000000
vn 0.000000 0.000000 1.000000
vn 0.000000 0.000000 1.000000
vn 0.000000 0.000000 1.000000
vn 0.000000 0.000000 1.000000
vn 0.000000 0.000000 1.000000
vn 0.000000 0.000000 1.000000
vn 0.000000 0.000000 1.000000
vn 0.000000 -1.000000 0.000000
vn 0.000000 -1.000000 0.000000
vn 0.000000 -1.000000 0.000000
vn 0.000000 -1.000000 0.000000
vn 0.000000 0.000000 -1.000000
vn 0.000000 0.000000 -1.000000
vn 0.000000 0.000000 -1.000000
vn 0.000000 0.000000 -1.000000
vn 0.000000 0.000000 1.000000
vn 0.000000 0.000000 1.000000
vn 0.000000 0.000000 1.000000
vn 0.000000 0.000000 1.000000
vn 0.000000 0.000000 -1.000000
vn 0.000000 0.000000 -1.000000
vn 0.000000 0.000000 -1.000000
vn 0.000000 0.000000 -1.000000
vn 0.000000 0.000000 -1.000000
vn 0.000000 0.000000 -1.000000
vn 0.000000 0.000000 -1.000000
vn 0.000000 0.000000 -1.000000
vn 0.000000 1.000000 0.000000
vn 0.000000 1.000000 0.000000
vn 0.000000 1.000000 0.000000
vn 0.000000 1.000000 0.000000
vn 0.000000 0.000000 1.000000
vn 0.000000 0.000000 1.000000
vn 0.000000 0.000000 1.000000
vn 0.000000 0.000000 1.000000
s 1
g pCube34
f 50/46/105 49/47/106 48/45/107
f 49/47/106 47/48/108 48/45/107
f 48/45/107 47/48/108 46/50/109
f 47/48/108 45/49/110 46/50/109
f 49/47/106 50/46/105 51/52/111
f 51/52/111 50/46/105 52/51/112
s 2
f 51/52/113 52/51/114 53/54/115
f 53/54/115 52/51/114 54/53/116
f 53/54/115 54/53/116 55/56/117
f 55/56/117 54/53/116 56/55/118
f 55/56/117 56/55/118 57/58/119
f 57/58/119 56/55/118 58/57/120
s 3
f 57/58/121 58/57/122 59/60/123
f 59/60/123 58/57/122 60/59/124
f 64/62/125 63/63/126 62/61/127
f 63/63/126 61/64/128 62/61/127
f 62/61/127 61/64/128 60/59/124
f 61/64/128 59/60/123 60/59/124
s 5
f 63/63/129 64/62/130 65/66/131
f 65/66/131 64/62/130 66/65/132
s 6
f 67/67/133 68/68/134 45/49/135
f 45/49/135 68/68/134 46/50/136
s 7
f 66/65/137 64/62/138 69/69/139
f 64/62/138 62/61/140 69/69/139
f 69/69/139 62/61/140 71/70/141
f 62/61/140 60/59/142 71/70/141
f 46/50/143 68/68/144 48/45/145
f 68/68/144 70/71/146 48/45/145
f 48/45/145 70/71/146 50/46/147
f 70/71/146 72/72/148 50/46/147
f 71/70/141 60/59/142 56/55/149
f 56/55/149 60/59/142 58/57/150
f 72/72/148 71/70/141 54/53/151
f 54/53/151 71/70/141 56/55/149
f 50/46/147 72/72/148 52/51/152
f 52/51/152 72/72/148 54/53/151
s 9
f 75/74/153 59/60/154 73/73/155
f 59/60/154 61/64/156 73/73/155
f 73/73/155 61/64/156 65/66/157
f 61/64/156 63/63/158 65/66/157
f 49/47/159 76/75/160 47/48/161
f 76/75/160 74/76/162 47/48/161
f 47/48/161 74/76/162 45/49/163
f 74/76/162 67/67/164 45/49/163
f 59/60/154 75/74/153 57/58/165
f 57/58/165 75/74/153 55/56/166
f 75/74/153 76/75/160 55/56/166
f 55/56/166 76/75/160 53/54/167
f 76/75/160 49/47/159 53/54/167
f 53/54/167 49/47/159 51/52/168
s 11
f 70/71/169 68/68/170 78/78/171
f 78/78/171 68/68/170 77/77/172
s 12
f 66/65/173 69/69/174 79/80/175
f 79/80/175 69/69/174 80/79/176
s 13
f 69/69/177 71/70/178 80/79/179
f 80/79/179 71/70/178 81/81/180
s 14
f 71/70/181 72/72/182 81/81/183
f 81/81/183 72/72/182 82/82/184
s 15
f 72/72/185 70/71/186 82/82/187
f 82/82/187 70/71/186 78/78/188
s 16
f 78/78/189 77/77/190 84/84/191
f 84/84/191 77/77/190 83/83/192
s 17
f 79/80/193 80/79/194 85/86/195
f 85/86/195 80/79/194 86/85/196
s 18
f 80/79/197 81/81/198 86/85/199
f 86/85/199 81/81/198 87/87/200
s 19
f 81/81/201 82/82/202 87/87/203
f 87/87/203 82/82/202 88/88/204
s 20
f 82/82/205 78/78/206 88/88/207
f 88/88/207 78/78/206 84/84/208
