# This file uses centimeters as units for non-parametric coordinates.

mtllib muebletv.mtl
g default
v 4.788170 0.104198 0.468234
v 4.788170 0.104198 2.014023
v 4.788170 0.812685 2.014023
v 4.788170 0.812685 0.468234
v 4.208498 0.104198 2.014023
v 4.208498 0.104198 0.468234
v 4.208498 0.812685 0.468234
v 4.208498 0.812685 2.014023
v 4.208498 0.104198 0.468234
v 4.788170 0.104198 0.468234
v 4.788170 0.812685 0.468234
v 4.208498 0.812685 0.468234
v 4.788170 0.104198 2.014023
v 4.208498 0.104198 2.014023
v 4.208498 0.812685 2.014023
v 4.788170 0.812685 2.014023
v 4.788170 0.812685 0.468234
v 4.788170 0.812685 2.014023
v 4.208498 0.812685 2.014023
v 4.208498 0.812685 0.468234
v 4.208498 0.104198 0.468234
v 4.208498 0.104198 2.014023
v 4.788170 0.104198 2.014023
v 4.788170 0.104198 0.468234
v 4.813932 0.812685 0.442471
v 4.813932 0.812685 2.039786
v 4.813932 0.851330 2.039786
v 4.813932 0.851330 0.442471
v 4.182735 0.812685 2.039786
v 4.182735 0.812685 0.442471
v 4.182735 0.851330 0.442471
v 4.182735 0.851330 2.039786
v 4.182735 0.812685 0.442471
v 4.813932 0.812685 0.442471
v 4.813932 0.851330 0.442471
v 4.182735 0.851330 0.442471
v 4.813932 0.812685 2.039786
v 4.182735 0.812685 2.039786
v 4.182735 0.851330 2.039786
v 4.813932 0.851330 2.039786
v 4.813932 0.851330 0.442471
v 4.813932 0.851330 2.039786
v 4.182735 0.851330 2.039786
v 4.182735 0.851330 0.442471
v 4.182735 0.812685 0.442471
v 4.182735 0.812685 2.039786
v 4.813932 0.812685 2.039786
v 4.813932 0.812685 0.442471
v 4.788170 0.104198 0.468234
v 4.788170 0.104198 2.014023
v 4.788170 0.812685 2.014023
v 4.788170 0.812685 0.468234
v 4.208498 0.104198 2.014023
v 4.208498 0.104198 0.468234
v 4.208498 0.812685 0.468234
v 4.208498 0.812685 2.014023
v 4.208498 0.104198 0.468234
v 4.788170 0.104198 0.468234
v 4.788170 0.812685 0.468234
v 4.208498 0.812685 0.468234
v 4.788170 0.104198 2.014023
v 4.208498 0.104198 2.014023
v 4.208498 0.812685 2.014023
v 4.788170 0.812685 2.014023
v 4.788170 0.812685 0.468234
v 4.788170 0.812685 2.014023
v 4.208498 0.812685 2.014023
v 4.208498 0.812685 0.468234
v 4.208498 0.104198 0.468234
v 4.208498 0.104198 2.014023
v 4.788170 0.104198 2.014023
v 4.788170 0.104198 0.468234
v 4.813932 0.812685 0.442471
v 4.813932 0.812685 2.039786
v 4.813932 0.851330 2.039786
v 4.813932 0.851330 0.442471
v 4.182735 0.812685 2.039786
v 4.182735 0.812685 0.442471
v 4.182735 0.851330 0.442471
v 4.182735 0.851330 2.039786
v 4.182735 0.812685 0.442471
v 4.813932 0.812685 0.442471
v 4.813932 0.851330 0.442471
v 4.182735 0.851330 0.442471
v 4.813932 0.812685 2.039786
v 4.182735 0.812685 2.039786
v 4.182735 0.851330 2.039786
v 4.813932 0.851330 2.039786
v 4.813932 0.851330 0.442471
v 4.813932 0.851330 2.039786
v 4.182735 0.851330 2.039786
v 4.182735 0.851330 0.442471
v 4.182735 0.812685 0.442471
v 4.182735 0.812685 2.039786
v 4.813932 0.812685 2.039786
v 4.813932 0.812685 0.442471
vt 0.008977 0.008116
vt 0.494019 0.008116
vt 0.494019 0.238986
vt 0.008977 0.238986
vt 0.997357 0.496269
vt 0.002643 0.496269
vt 0.002643 0.997377
vt 0.997357 0.997377
vt 0.006202 0.009616
vt 0.497254 0.009616
vt 0.497254 0.246941
vt 0.006202 0.246941
vt 0.493393 0.007721
vt 0.008177 0.007721
vt 0.008177 0.242008
vt 0.493393 0.242008
vt 0.000000 1.000000
vt 0.500000 1.000000
vt 0.500000 0.750000
vt 0.000000 0.750000
vt 0.000000 0.500000
vt 1.000000 0.500000
vt 1.000000 0.500000
vt 0.000000 0.500000
vt 0.604275 0.497181
vt 0.604275 0.497181
vt 0.604275 0.499049
vt 0.604275 0.499049
vt 0.401756 0.497181
vt 0.401756 0.497181
vt 0.401756 0.499049
vt 0.401756 0.499049
vt 0.401756 0.497181
vt 0.604275 0.497181
vt 0.604275 0.499049
vt 0.401756 0.499049
vt 0.604275 0.497181
vt 0.401756 0.497181
vt 0.401756 0.499049
vt 0.604275 0.499049
vt 0.252368 0.454367
vt 0.470833 0.454367
vt 0.470833 0.454367
vt 0.252368 0.454367
vt 0.401756 0.497181
vt 0.401756 0.497181
vt 0.604275 0.497181
vt 0.604275 0.497181
vt 0.008977 0.008116
vt 0.494019 0.008116
vt 0.494019 0.238986
vt 0.008977 0.238986
vt 0.997357 0.496269
vt 0.002643 0.496269
vt 0.002643 0.997377
vt 0.997357 0.997377
vt 0.006202 0.009616
vt 0.497254 0.009616
vt 0.497254 0.246941
vt 0.006202 0.246941
vt 0.493393 0.007721
vt 0.008177 0.007721
vt 0.008177 0.242008
vt 0.493393 0.242008
vt 0.000000 1.000000
vt 0.500000 1.000000
vt 0.500000 0.750000
vt 0.000000 0.750000
vt 0.000000 0.500000
vt 1.000000 0.500000
vt 1.000000 0.500000
vt 0.000000 0.500000
vt 0.604275 0.497181
vt 0.604275 0.497181
vt 0.604275 0.499049
vt 0.604275 0.499049
vt 0.401756 0.497181
vt 0.401756 0.497181
vt 0.401756 0.499049
vt 0.401756 0.499049
vt 0.401756 0.497181
vt 0.604275 0.497181
vt 0.604275 0.499049
vt 0.401756 0.499049
vt 0.604275 0.497181
vt 0.401756 0.497181
vt 0.401756 0.499049
vt 0.604275 0.499049
vt 0.252368 0.454367
vt 0.470833 0.454367
vt 0.470833 0.454367
vt 0.252368 0.454367
vt 0.401756 0.497181
vt 0.401756 0.497181
vt 0.604275 0.497181
vt 0.604275 0.497181
vn -1.000000 0.000000 0.000000
vn -1.000000 0.000000 0.000000
vn -1.000000 0.000000 0.000000
vn -1.000000 0.000000 0.000000
vn -1.000000 0.000000 0.000000
vn -1.000000 0.000000 0.000000
vn 1.000000 0.000000 0.000000
vn 1.000000 0.000000 0.000000
vn 1.000000 0.000000 0.000000
vn 1.000000 0.000000 0.000000
vn 1.000000 0.000000 0.000000
vn 1.000000 0.000000 0.000000
vn 0.000000 0.000000 1.000000
vn 0.000000 0.000000 1.000000
vn 0.000000 0.000000 1.000000
vn 0.000000 0.000000 1.000000
vn 0.000000 0.000000 1.000000
vn 0.000000 0.000000 1.000000
vn -0.000000 0.000000 -1.000000
vn -0.000000 0.000000 -1.000000
vn -0.000000 0.000000 -1.000000
vn -0.000000 0.000000 -1.000000
vn -0.000000 0.000000 -1.000000
vn -0.000000 0.000000 -1.000000
vn 0.000000 -1.000000 0.000000
vn 0.000000 -1.000000 0.000000
vn 0.000000 -1.000000 0.000000
vn 0.000000 -1.000000 0.000000
vn 0.000000 -1.000000 0.000000
vn 0.000000 -1.000000 0.000000
vn 0.000000 1.000000 0.000000
vn 0.000000 1.000000 0.000000
vn 0.000000 1.000000 0.000000
vn 0.000000 1.000000 0.000000
vn 0.000000 1.000000 0.000000
vn 0.000000 1.000000 0.000000
vn -1.000000 0.000000 0.000000
vn -1.000000 0.000000 0.000000
vn -1.000000 0.000000 0.000000
vn -1.000000 0.000000 0.000000
vn -1.000000 0.000000 0.000000
vn -1.000000 0.000000 0.000000
vn 1.000000 0.000000 0.000000
vn 1.000000 0.000000 0.000000
vn 1.000000 0.000000 0.000000
vn 1.000000 0.000000 0.000000
vn 1.000000 0.000000 0.000000
vn 1.000000 0.000000 0.000000
vn 0.000000 0.000000 1.000000
vn 0.000000 0.000000 1.000000
vn 0.000000 0.000000 1.000000
vn 0.000000 0.000000 1.000000
vn 0.000000 0.000000 1.000000
vn 0.000000 0.000000 1.000000
vn -0.000000 0.000000 -1.000000
vn -0.000000 0.000000 -1.000000
vn -0.000000 0.000000 -1.000000
vn -0.000000 0.000000 -1.000000
vn -0.000000 0.000000 -1.000000
vn -0.000000 0.000000 -1.000000
vn 0.000000 -1.000000 0.000000
vn 0.000000 -1.000000 0.000000
vn 0.000000 -1.000000 0.000000
vn 0.000000 -1.000000 0.000000
vn 0.000000 -1.000000 0.000000
vn 0.000000 -1.000000 0.000000
vn 0.000000 1.000000 0.000000
vn 0.000000 1.000000 0.000000
vn 0.000000 1.000000 0.000000
vn 0.000000 1.000000 0.000000
vn 0.000000 1.000000 0.000000
vn 0.000000 1.000000 0.000000
vn -1.000000 0.000000 0.000000
vn -1.000000 0.000000 0.000000
vn -1.000000 0.000000 0.000000
vn -1.000000 0.000000 0.000000
vn -1.000000 0.000000 0.000000
vn -1.000000 0.000000 0.000000
vn 1.000000 0.000000 0.000000
vn 1.000000 0.000000 0.000000
vn 1.000000 0.000000 0.000000
vn 1.000000 0.000000 0.000000
vn 1.000000 0.000000 0.000000
vn 1.000000 0.000000 0.000000
vn 0.000000 0.000000 1.000000
vn 0.000000 0.000000 1.000000
vn 0.000000 0.000000 1.000000
vn 0.000000 0.000000 1.000000
vn 0.000000 0.000000 1.000000
vn 0.000000 0.000000 1.000000
vn -0.000000 0.000000 -1.000000
vn -0.000000 0.000000 -1.000000
vn -0.000000 0.000000 -1.000000
vn -0.000000 0.000000 -1.000000
vn -0.000000 0.000000 -1.000000
vn -0.000000 0.000000 -1.000000
vn 0.000000 -1.000000 0.000000
vn 0.000000 -1.000000 0.000000
vn 0.000000 -1.000000 0.000000
vn 0.000000 -1.000000 0.000000
vn 0.000000 -1.000000 0.000000
vn 0.000000 -1.000000 0.000000
vn 0.000000 1.000000 0.000000
vn 0.000000 1.000000 0.000000
vn 0.000000 1.000000 0.000000
vn 0.000000 1.000000 0.000000
vn 0.000000 1.000000 0.000000
vn 0.000000 1.000000 0.000000
vn -1.000000 0.000000 0.000000
vn -1.000000 0.000000 0.000000
vn -1.000000 0.000000 0.000000
vn -1.000000 0.000000 0.000000
vn -1.000000 0.000000 0.000000
vn -1.000000 0.000000 0.000000
vn 1.000000 0.000000 0.000000
vn 1.000000 0.000000 0.000000
vn 1.000000 0.000000 0.000000
vn 1.000000 0.000000 0.000000
vn 1.000000 0.000000 0.000000
vn 1.000000 0.000000 0.000000
vn 0.000000 0.000000 1.000000
vn 0.000000 0.000000 1.000000
vn 0.000000 0.000000 1.000000
vn 0.000000 0.000000 1.000000
vn 0.000000 0.000000 1.000000
vn 0.000000 0.000000 1.000000
vn -0.000000 0.000000 -1.000000
vn -0.000000 0.000000 -1.000000
vn -0.000000 0.000000 -1.000000
vn -0.000000 0.000000 -1.000000
vn -0.000000 0.000000 -1.000000
vn -0.000000 0.000000 -1.000000
vn 0.000000 -1.000000 0.000000
vn 0.000000 -1.000000 0.000000
vn 0.000000 -1.000000 0.000000
vn 0.000000 -1.000000 0.000000
vn 0.000000 -1.000000 0.000000
vn 0.000000 -1.000000 0.000000
vn 0.000000 1.000000 0.000000
vn 0.000000 1.000000 0.000000
vn 0.000000 1.000000 0.000000
vn 0.000000 1.000000 0.000000
vn 0.000000 1.000000 0.000000
vn 0.000000 1.000000 0.000000
s off
g muebletv:Mesh
usemtl muebletv:FG_TVCabinet
f 1/1/1 2/2/2 3/3/3
f 1/1/4 3/3/5 4/4/6
f 5/5/7 6/6/8 7/7/9
f 5/5/10 7/7/11 8/8/12
f 9/9/13 10/10/14 11/11/15
f 9/9/16 11/11/17 12/12/18
f 13/13/19 14/14/20 15/15/21
f 13/13/22 15/15/23 16/16/24
f 17/17/25 18/18/26 19/19/27
f 17/17/28 19/19/29 20/20/30
f 21/21/31 22/22/32 23/23/33
f 21/21/34 23/23/35 24/24/36
f 25/25/37 26/26/38 27/27/39
f 25/25/40 27/27/41 28/28/42
f 29/29/43 30/30/44 31/31/45
f 29/29/46 31/31/47 32/32/48
f 33/33/49 34/34/50 35/35/51
f 33/33/52 35/35/53 36/36/54
f 37/37/55 38/38/56 39/39/57
f 37/37/58 39/39/59 40/40/60
f 41/41/61 42/42/62 43/43/63
f 41/41/64 43/43/65 44/44/66
f 45/45/67 46/46/68 47/47/69
f 45/45/70 47/47/71 48/48/72
f 49/49/73 50/50/74 51/51/75
f 49/49/76 51/51/77 52/52/78
f 53/53/79 54/54/80 55/55/81
f 53/53/82 55/55/83 56/56/84
f 57/57/85 58/58/86 59/59/87
f 57/57/88 59/59/89 60/60/90
f 61/61/91 62/62/92 63/63/93
f 61/61/94 63/63/95 64/64/96
f 65/65/97 66/66/98 67/67/99
f 65/65/100 67/67/101 68/68/102
f 69/69/103 70/70/104 71/71/105
f 69/69/106 71/71/107 72/72/108
f 73/73/109 74/74/110 75/75/111
f 73/73/112 75/75/113 76/76/114
f 77/77/115 78/78/116 79/79/117
f 77/77/118 79/79/119 80/80/120
f 81/81/121 82/82/122 83/83/123
f 81/81/124 83/83/125 84/84/126
f 85/85/127 86/86/128 87/87/129
f 85/85/130 87/87/131 88/88/132
f 89/89/133 90/90/134 91/91/135
f 89/89/136 91/91/137 92/92/138
f 93/93/139 94/94/140 95/95/141
f 93/93/142 95/95/143 96/96/144
