# This file uses centimeters as units for non-parametric coordinates.

mtllib paredSalaEsc.mtl
g default
v -1.199085 0.104999 -0.883000
v -0.752150 0.104999 -0.883000
v -0.637709 0.104999 -0.883000
v 0.141719 0.104999 -0.883000
v 0.244366 0.104999 -0.883000
v 1.035587 0.104999 -0.883000
v -1.199085 1.935322 -0.883000
v -0.752150 1.935322 -0.883000
v -0.637709 1.935322 -0.883000
v 0.141719 1.935322 -0.883000
v 0.244366 1.935322 -0.883000
v 1.035587 1.935322 -0.883000
v -1.199085 2.048210 -0.883000
v -0.752150 2.048210 -0.883000
v -0.637709 2.048210 -0.883000
v 0.141719 2.048210 -0.883000
v 0.244366 2.048210 -0.883000
v 1.035587 2.048210 -0.883000
v -1.199085 2.959000 -0.883000
v -0.752150 2.959000 -0.883000
v -0.637709 2.959000 -0.883000
v 0.141719 2.959000 -0.883000
v 0.244366 2.959000 -0.883000
v 1.035587 2.959000 -0.883000
v -1.199085 2.959000 -0.987000
v -0.752150 2.959000 -0.987000
v -0.637709 2.959000 -0.987000
v 0.141719 2.959000 -0.987000
v 0.244366 2.959000 -0.987000
v 1.035587 2.959000 -0.987000
v -1.199085 2.048210 -0.987000
v -0.752150 2.048210 -0.987000
v -0.637709 2.048210 -0.987000
v 0.141719 2.048210 -0.987000
v 0.244366 2.048210 -0.987000
v 1.035587 2.048210 -0.987000
v -1.199085 1.935322 -0.987000
v -0.752150 1.935322 -0.987000
v -0.637709 1.935322 -0.987000
v 0.141719 1.935322 -0.987000
v 0.244366 1.935322 -0.987000
v 1.035587 1.935322 -0.987000
v -1.199085 0.104999 -0.987000
v -0.752150 0.104999 -0.987000
v -0.637709 0.104999 -0.987000
v 0.141719 0.104999 -0.987000
v 0.244366 0.104999 -0.987000
v 1.035587 0.104999 -0.987000
vt 0.375000 0.000000
vt 0.128887 0.949468
vt 0.219060 0.949468
vt 0.219060 0.976831
vt 0.128887 0.976831
vt 0.625000 0.000000
vt 0.375000 0.083333
vt 0.833196 0.949468
vt 0.914075 0.949468
vt 0.914075 0.976831
vt 0.833196 0.976831
vt 0.625000 0.083333
vt 0.375000 0.166667
vt 0.219060 0.978519
vt 0.128887 0.978519
vt 0.833196 0.978519
vt 0.914075 0.978519
vt 0.625000 0.166667
vt 0.375000 0.250000
vt 0.425000 0.250000
vt 0.475000 0.250000
vt 0.525000 0.250000
vt 0.575000 0.250000
vt 0.625000 0.250000
vt 0.375000 0.500000
vt 0.425000 0.500000
vt 0.475000 0.500000
vt 0.525000 0.500000
vt 0.575000 0.500000
vt 0.625000 0.500000
vt 0.375000 0.583333
vt 0.425000 0.583333
vt 0.475000 0.583333
vt 0.525000 0.583333
vt 0.575000 0.583333
vt 0.625000 0.583333
vt 0.375000 0.666667
vt 0.425000 0.666667
vt 0.475000 0.666667
vt 0.525000 0.666667
vt 0.575000 0.666667
vt 0.625000 0.666667
vt 0.375000 0.750000
vt 0.425000 0.750000
vt 0.475000 0.750000
vt 0.525000 0.750000
vt 0.575000 0.750000
vt 0.625000 0.750000
vt 0.375000 1.000000
vt 0.425000 1.000000
vt 0.475000 1.000000
vt 0.525000 1.000000
vt 0.575000 1.000000
vt 0.625000 1.000000
vt 0.875000 0.000000
vt 0.875000 0.083333
vt 0.875000 0.166667
vt 0.875000 0.250000
vt 0.125000 0.000000
vt 0.125000 0.083333
vt 0.125000 0.166667
vt 0.125000 0.250000
vt 0.000000 0.050008
vt 0.200000 0.050008
vt 0.200000 0.627184
vt 0.000000 0.627184
vt -0.000000 0.000000
vt 1.000000 0.000000
vt 1.000000 1.000000
vt -0.000000 1.000000
vt 0.645934 0.050008
vt 1.000000 0.050008
vt 1.000000 0.627184
vt 0.645934 0.627184
vt 0.200000 0.662782
vt 0.000000 0.662782
vt 1.000000 0.662782
vt 0.645934 0.662782
vt 0.200000 0.949992
vt 0.000000 0.949992
vt 0.251212 0.662782
vt 0.251212 0.949992
vt 0.600000 0.662782
vt 0.600000 0.949992
vt 0.645934 0.949992
vt 1.000000 0.949992
vn 0.000000 0.000000 1.000000
vn 0.000000 0.000000 1.000000
vn 0.000000 0.000000 1.000000
vn 0.000000 0.000000 1.000000
vn 0.000000 0.000000 1.000000
vn 0.000000 0.000000 1.000000
vn 0.000000 0.000000 1.000000
vn 0.000000 0.000000 1.000000
vn 0.000000 0.000000 1.000000
vn 0.000000 0.000000 1.000000
vn 0.000000 0.000000 1.000000
vn 0.000000 0.000000 1.000000
vn 0.000000 0.000000 1.000000
vn 0.000000 0.000000 1.000000
vn 0.000000 0.000000 1.000000
vn 0.000000 0.000000 1.000000
vn 0.000000 0.000000 1.000000
vn 0.000000 0.000000 1.000000
vn 0.000000 0.000000 1.000000
vn 0.000000 0.000000 1.000000
vn 0.000000 0.000000 1.000000
vn 0.000000 0.000000 1.000000
vn 0.000000 0.000000 1.000000
vn 0.000000 0.000000 1.000000
vn 0.000000 1.000000 0.000000
vn 0.000000 1.000000 0.000000
vn 0.000000 1.000000 0.000000
vn 0.000000 1.000000 0.000000
vn 0.000000 1.000000 0.000000
vn 0.000000 1.000000 0.000000
vn 0.000000 1.000000 0.000000
vn 0.000000 1.000000 0.000000
vn 0.000000 1.000000 0.000000
vn 0.000000 1.000000 0.000000
vn 0.000000 1.000000 0.000000
vn 0.000000 1.000000 0.000000
vn 0.000000 0.000000 -1.000000
vn 0.000000 0.000000 -1.000000
vn 0.000000 0.000000 -1.000000
vn 0.000000 0.000000 -1.000000
vn 0.000000 0.000000 -1.000000
vn 0.000000 0.000000 -1.000000
vn 0.000000 0.000000 -1.000000
vn 0.000000 0.000000 -1.000000
vn 0.000000 0.000000 -1.000000
vn 0.000000 0.000000 -1.000000
vn 0.000000 0.000000 -1.000000
vn 0.000000 0.000000 -1.000000
vn 0.000000 0.000000 -1.000000
vn 0.000000 0.000000 -1.000000
vn 0.000000 0.000000 -1.000000
vn 0.000000 0.000000 -1.000000
vn 0.000000 0.000000 -1.000000
vn 0.000000 0.000000 -1.000000
vn 0.000000 0.000000 -1.000000
vn 0.000000 0.000000 -1.000000
vn 0.000000 0.000000 -1.000000
vn 0.000000 0.000000 -1.000000
vn 0.000000 0.000000 -1.000000
vn 0.000000 0.000000 -1.000000
vn 0.000000 -1.000000 0.000000
vn 0.000000 -1.000000 0.000000
vn 0.000000 -1.000000 0.000000
vn 0.000000 -1.000000 0.000000
vn 0.000000 -1.000000 0.000000
vn 0.000000 -1.000000 0.000000
vn 0.000000 -1.000000 0.000000
vn 0.000000 -1.000000 0.000000
vn 0.000000 -1.000000 0.000000
vn 0.000000 -1.000000 0.000000
vn 0.000000 -1.000000 0.000000
vn 0.000000 -1.000000 0.000000
vn 1.000000 0.000000 0.000000
vn 1.000000 0.000000 0.000000
vn 1.000000 0.000000 0.000000
vn 1.000000 0.000000 0.000000
vn 1.000000 0.000000 0.000000
vn 1.000000 0.000000 0.000000
vn 1.000000 0.000000 0.000000
vn 1.000000 0.000000 0.000000
vn -1.000000 0.000000 0.000000
vn -1.000000 0.000000 0.000000
vn -1.000000 0.000000 0.000000
vn -1.000000 0.000000 0.000000
vn -1.000000 0.000000 0.000000
vn -1.000000 0.000000 0.000000
vn -1.000000 0.000000 0.000000
vn -1.000000 0.000000 0.000000
s 1
g pCube27
usemtl lambert11SG
f 1/63/1 2/64/2 7/66/3
f 7/66/3 2/64/2 8/65/4
f 2/2/2 3/3/5 8/5/4
f 8/5/4 3/3/5 9/4/6
usemtl lambert12SG
f 3/67/5 4/68/7 9/70/6
f 9/70/6 4/68/7 10/69/8
usemtl lambert11SG
f 4/8/7 5/9/9 10/11/8
f 10/11/8 5/9/9 11/10/10
f 5/71/9 6/72/11 11/74/10
f 11/74/10 6/72/11 12/73/12
f 7/66/3 8/65/4 13/76/13
f 13/76/13 8/65/4 14/75/14
f 8/5/4 9/4/6 14/15/14
f 14/15/14 9/4/6 15/14/15
f 9/4/6 10/11/8 15/14/15
f 15/14/15 10/11/8 16/16/16
f 10/11/8 11/10/10 16/16/16
f 16/16/16 11/10/10 17/17/17
f 11/74/10 12/73/12 17/78/17
f 17/78/17 12/73/12 18/77/18
f 13/76/13 14/75/14 19/80/19
f 19/80/19 14/75/14 20/79/20
f 14/75/14 15/81/15 20/79/20
f 20/79/20 15/81/15 21/82/21
f 15/81/15 16/83/16 21/82/21
f 21/82/21 16/83/16 22/84/22
f 16/83/16 17/78/17 22/84/22
f 22/84/22 17/78/17 23/85/23
f 17/78/17 18/77/18 23/85/23
f 23/85/23 18/77/18 24/86/24
s 2
f 19/19/25 20/20/26 25/25/27
f 25/25/27 20/20/26 26/26/28
f 20/20/26 21/21/29 26/26/28
f 26/26/28 21/21/29 27/27/30
f 21/21/29 22/22/31 27/27/30
f 27/27/30 22/22/31 28/28/32
f 22/22/31 23/23/33 28/28/32
f 28/28/32 23/23/33 29/29/34
f 23/23/33 24/24/35 29/29/34
f 29/29/34 24/24/35 30/30/36
s 3
f 25/25/37 26/26/38 31/31/39
f 31/31/39 26/26/38 32/32/40
f 26/26/38 27/27/41 32/32/40
f 32/32/40 27/27/41 33/33/42
f 27/27/41 28/28/43 33/33/42
f 33/33/42 28/28/43 34/34/44
f 28/28/43 29/29/45 34/34/44
f 34/34/44 29/29/45 35/35/46
f 29/29/45 30/30/47 35/35/46
f 35/35/46 30/30/47 36/36/48
f 31/31/39 32/32/40 37/37/49
f 37/37/49 32/32/40 38/38/50
f 32/32/40 33/33/42 38/38/50
f 38/38/50 33/33/42 39/39/51
f 33/33/42 34/34/44 39/39/51
f 39/39/51 34/34/44 40/40/52
f 34/34/44 35/35/46 40/40/52
f 40/40/52 35/35/46 41/41/53
f 35/35/46 36/36/48 41/41/53
f 41/41/53 36/36/48 42/42/54
f 37/37/49 38/38/50 43/43/55
f 43/43/55 38/38/50 44/44/56
f 38/38/50 39/39/51 44/44/56
f 44/44/56 39/39/51 45/45/57
f 39/39/51 40/40/52 45/45/57
f 45/45/57 40/40/52 46/46/58
f 40/40/52 41/41/53 46/46/58
f 46/46/58 41/41/53 47/47/59
f 41/41/53 42/42/54 47/47/59
f 47/47/59 42/42/54 48/48/60
s 4
f 43/43/61 44/44/62 1/49/63
f 1/49/63 44/44/62 2/50/64
f 44/44/62 45/45/65 2/50/64
f 2/50/64 45/45/65 3/51/66
f 45/45/65 46/46/67 3/51/66
f 3/51/66 46/46/67 4/52/68
f 46/46/67 47/47/69 4/52/68
f 4/52/68 47/47/69 5/53/70
f 47/47/69 48/48/71 5/53/70
f 5/53/70 48/48/71 6/54/72
s 5
f 6/6/73 48/55/74 12/12/75
f 12/12/75 48/55/74 42/56/76
f 12/12/75 42/56/76 18/18/77
f 18/18/77 42/56/76 36/57/78
f 18/18/77 36/57/78 24/24/79
f 24/24/79 36/57/78 30/58/80
s 6
f 43/59/81 1/1/82 37/60/83
f 37/60/83 1/1/82 7/7/84
f 37/60/83 7/7/84 31/61/85
f 31/61/85 7/7/84 13/13/86
f 31/61/85 13/13/86 25/62/87
f 25/62/87 13/13/86 19/19/88
g default
v -1.199085 0.104999 -0.883000
v -0.752150 0.104999 -0.883000
v -0.637709 0.104999 -0.883000
v 0.141719 0.104999 -0.883000
v 0.244366 0.104999 -0.883000
v 1.035587 0.104999 -0.883000
v -1.199085 1.935322 -0.883000
v -0.752150 1.935322 -0.883000
v -0.637709 1.935322 -0.883000
v 0.141719 1.935322 -0.883000
v 0.244366 1.935322 -0.883000
v 1.035587 1.935322 -0.883000
v -1.199085 2.048210 -0.883000
v -0.752150 2.048210 -0.883000
v -0.637709 2.048210 -0.883000
v 0.141719 2.048210 -0.883000
v 0.244366 2.048210 -0.883000
v 1.035587 2.048210 -0.883000
v -1.199085 2.959000 -0.883000
v -0.752150 2.959000 -0.883000
v -0.637709 2.959000 -0.883000
v 0.141719 2.959000 -0.883000
v 0.244366 2.959000 -0.883000
v 1.035587 2.959000 -0.883000
v -1.199085 2.959000 -0.987000
v -0.752150 2.959000 -0.987000
v -0.637709 2.959000 -0.987000
v 0.141719 2.959000 -0.987000
v 0.244366 2.959000 -0.987000
v 1.035587 2.959000 -0.987000
v -1.199085 2.048210 -0.987000
v -0.752150 2.048210 -0.987000
v -0.637709 2.048210 -0.987000
v 0.141719 2.048210 -0.987000
v 0.244366 2.048210 -0.987000
v 1.035587 2.048210 -0.987000
v -1.199085 1.935322 -0.987000
v -0.752150 1.935322 -0.987000
v -0.637709 1.935322 -0.987000
v 0.141719 1.935322 -0.987000
v 0.244366 1.935322 -0.987000
v 1.035587 1.935322 -0.987000
v -1.199085 0.104999 -0.987000
v -0.752150 0.104999 -0.987000
v -0.637709 0.104999 -0.987000
v 0.141719 0.104999 -0.987000
v 0.244366 0.104999 -0.987000
v 1.035587 0.104999 -0.987000
vt 0.375000 0.000000
vt 0.128887 0.949468
vt 0.219060 0.949468
vt 0.219060 0.976831
vt 0.128887 0.976831
vt 0.625000 0.000000
vt 0.375000 0.083333
vt 0.833196 0.949468
vt 0.914075 0.949468
vt 0.914075 0.976831
vt 0.833196 0.976831
vt 0.625000 0.083333
vt 0.375000 0.166667
vt 0.219060 0.978519
vt 0.128887 0.978519
vt 0.833196 0.978519
vt 0.914075 0.978519
vt 0.625000 0.166667
vt 0.375000 0.250000
vt 0.425000 0.250000
vt 0.475000 0.250000
vt 0.525000 0.250000
vt 0.575000 0.250000
vt 0.625000 0.250000
vt 0.375000 0.500000
vt 0.425000 0.500000
vt 0.475000 0.500000
vt 0.525000 0.500000
vt 0.575000 0.500000
vt 0.625000 0.500000
vt 0.375000 0.583333
vt 0.425000 0.583333
vt 0.475000 0.583333
vt 0.525000 0.583333
vt 0.575000 0.583333
vt 0.625000 0.583333
vt 0.375000 0.666667
vt 0.425000 0.666667
vt 0.475000 0.666667
vt 0.525000 0.666667
vt 0.575000 0.666667
vt 0.625000 0.666667
vt 0.375000 0.750000
vt 0.425000 0.750000
vt 0.475000 0.750000
vt 0.525000 0.750000
vt 0.575000 0.750000
vt 0.625000 0.750000
vt 0.375000 1.000000
vt 0.425000 1.000000
vt 0.475000 1.000000
vt 0.525000 1.000000
vt 0.575000 1.000000
vt 0.625000 1.000000
vt 0.875000 0.000000
vt 0.875000 0.083333
vt 0.875000 0.166667
vt 0.875000 0.250000
vt 0.125000 0.000000
vt 0.125000 0.083333
vt 0.125000 0.166667
vt 0.125000 0.250000
vt 0.000000 0.050008
vt 0.200000 0.050008
vt 0.200000 0.627184
vt 0.000000 0.627184
vt -0.000000 0.000000
vt 1.000000 0.000000
vt 1.000000 1.000000
vt -0.000000 1.000000
vt 0.645934 0.050008
vt 1.000000 0.050008
vt 1.000000 0.627184
vt 0.645934 0.627184
vt 0.200000 0.662782
vt 0.000000 0.662782
vt 1.000000 0.662782
vt 0.645934 0.662782
vt 0.200000 0.949992
vt 0.000000 0.949992
vt 0.251212 0.662782
vt 0.251212 0.949992
vt 0.600000 0.662782
vt 0.600000 0.949992
vt 0.645934 0.949992
vt 1.000000 0.949992
vn 0.000000 0.000000 1.000000
vn 0.000000 0.000000 1.000000
vn 0.000000 0.000000 1.000000
vn 0.000000 0.000000 1.000000
vn 0.000000 0.000000 1.000000
vn 0.000000 0.000000 1.000000
vn 0.000000 0.000000 1.000000
vn 0.000000 0.000000 1.000000
vn 0.000000 0.000000 1.000000
vn 0.000000 0.000000 1.000000
vn 0.000000 0.000000 1.000000
vn 0.000000 0.000000 1.000000
vn 0.000000 0.000000 1.000000
vn 0.000000 0.000000 1.000000
vn 0.000000 0.000000 1.000000
vn 0.000000 0.000000 1.000000
vn 0.000000 0.000000 1.000000
vn 0.000000 0.000000 1.000000
vn 0.000000 0.000000 1.000000
vn 0.000000 0.000000 1.000000
vn 0.000000 0.000000 1.000000
vn 0.000000 0.000000 1.000000
vn 0.000000 0.000000 1.000000
vn 0.000000 0.000000 1.000000
vn 0.000000 1.000000 0.000000
vn 0.000000 1.000000 0.000000
vn 0.000000 1.000000 0.000000
vn 0.000000 1.000000 0.000000
vn 0.000000 1.000000 0.000000
vn 0.000000 1.000000 0.000000
vn 0.000000 1.000000 0.000000
vn 0.000000 1.000000 0.000000
vn 0.000000 1.000000 0.000000
vn 0.000000 1.000000 0.000000
vn 0.000000 1.000000 0.000000
vn 0.000000 1.000000 0.000000
vn 0.000000 0.000000 -1.000000
vn 0.000000 0.000000 -1.000000
vn 0.000000 0.000000 -1.000000
vn 0.000000 0.000000 -1.000000
vn 0.000000 0.000000 -1.000000
vn 0.000000 0.000000 -1.000000
vn 0.000000 0.000000 -1.000000
vn 0.000000 0.000000 -1.000000
vn 0.000000 0.000000 -1.000000
vn 0.000000 0.000000 -1.000000
vn 0.000000 0.000000 -1.000000
vn 0.000000 0.000000 -1.000000
vn 0.000000 0.000000 -1.000000
vn 0.000000 0.000000 -1.000000
vn 0.000000 0.000000 -1.000000
vn 0.000000 0.000000 -1.000000
vn 0.000000 0.000000 -1.000000
vn 0.000000 0.000000 -1.000000
vn 0.000000 0.000000 -1.000000
vn 0.000000 0.000000 -1.000000
vn 0.000000 0.000000 -1.000000
vn 0.000000 0.000000 -1.000000
vn 0.000000 0.000000 -1.000000
vn 0.000000 0.000000 -1.000000
vn 0.000000 -1.000000 0.000000
vn 0.000000 -1.000000 0.000000
vn 0.000000 -1.000000 0.000000
vn 0.000000 -1.000000 0.000000
vn 0.000000 -1.000000 0.000000
vn 0.000000 -1.000000 0.000000
vn 0.000000 -1.000000 0.000000
vn 0.000000 -1.000000 0.000000
vn 0.000000 -1.000000 0.000000
vn 0.000000 -1.000000 0.000000
vn 0.000000 -1.000000 0.000000
vn 0.000000 -1.000000 0.000000
vn 1.000000 0.000000 0.000000
vn 1.000000 0.000000 0.000000
vn 1.000000 0.000000 0.000000
vn 1.000000 0.000000 0.000000
vn 1.000000 0.000000 0.000000
vn 1.000000 0.000000 0.000000
vn 1.000000 0.000000 0.000000
vn 1.000000 0.000000 0.000000
vn -1.000000 0.000000 0.000000
vn -1.000000 0.000000 0.000000
vn -1.000000 0.000000 0.000000
vn -1.000000 0.000000 0.000000
vn -1.000000 0.000000 0.000000
vn -1.000000 0.000000 0.000000
vn -1.000000 0.000000 0.000000
vn -1.000000 0.000000 0.000000
s 1
g pCube27
f 49/149/89 50/150/90 55/152/91
f 55/152/91 50/150/90 56/151/92
f 50/88/90 51/89/93 56/91/92
f 56/91/92 51/89/93 57/90/94
f 51/153/93 52/154/95 57/156/94
f 57/156/94 52/154/95 58/155/96
f 52/94/95 53/95/97 58/97/96
f 58/97/96 53/95/97 59/96/98
f 53/157/97 54/158/99 59/160/98
f 59/160/98 54/158/99 60/159/100
f 55/152/91 56/151/92 61/162/101
f 61/162/101 56/151/92 62/161/102
f 56/91/92 57/90/94 62/101/102
f 62/101/102 57/90/94 63/100/103
f 57/90/94 58/97/96 63/100/103
f 63/100/103 58/97/96 64/102/104
f 58/97/96 59/96/98 64/102/104
f 64/102/104 59/96/98 65/103/105
f 59/160/98 60/159/100 65/164/105
f 65/164/105 60/159/100 66/163/106
f 61/162/101 62/161/102 67/166/107
f 67/166/107 62/161/102 68/165/108
f 62/161/102 63/167/103 68/165/108
f 68/165/108 63/167/103 69/168/109
f 63/167/103 64/169/104 69/168/109
f 69/168/109 64/169/104 70/170/110
f 64/169/104 65/164/105 70/170/110
f 70/170/110 65/164/105 71/171/111
f 65/164/105 66/163/106 71/171/111
f 71/171/111 66/163/106 72/172/112
s 2
f 67/105/113 68/106/114 73/111/115
f 73/111/115 68/106/114 74/112/116
f 68/106/114 69/107/117 74/112/116
f 74/112/116 69/107/117 75/113/118
f 69/107/117 70/108/119 75/113/118
f 75/113/118 70/108/119 76/114/120
f 70/108/119 71/109/121 76/114/120
f 76/114/120 71/109/121 77/115/122
f 71/109/121 72/110/123 77/115/122
f 77/115/122 72/110/123 78/116/124
s 3
f 73/111/125 74/112/126 79/117/127
f 79/117/127 74/112/126 80/118/128
f 74/112/126 75/113/129 80/118/128
f 80/118/128 75/113/129 81/119/130
f 75/113/129 76/114/131 81/119/130
f 81/119/130 76/114/131 82/120/132
f 76/114/131 77/115/133 82/120/132
f 82/120/132 77/115/133 83/121/134
f 77/115/133 78/116/135 83/121/134
f 83/121/134 78/116/135 84/122/136
f 79/117/127 80/118/128 85/123/137
f 85/123/137 80/118/128 86/124/138
f 80/118/128 81/119/130 86/124/138
f 86/124/138 81/119/130 87/125/139
f 81/119/130 82/120/132 87/125/139
f 87/125/139 82/120/132 88/126/140
f 82/120/132 83/121/134 88/126/140
f 88/126/140 83/121/134 89/127/141
f 83/121/134 84/122/136 89/127/141
f 89/127/141 84/122/136 90/128/142
f 85/123/137 86/124/138 91/129/143
f 91/129/143 86/124/138 92/130/144
f 86/124/138 87/125/139 92/130/144
f 92/130/144 87/125/139 93/131/145
f 87/125/139 88/126/140 93/131/145
f 93/131/145 88/126/140 94/132/146
f 88/126/140 89/127/141 94/132/146
f 94/132/146 89/127/141 95/133/147
f 89/127/141 90/128/142 95/133/147
f 95/133/147 90/128/142 96/134/148
s 4
f 91/129/149 92/130/150 49/135/151
f 49/135/151 92/130/150 50/136/152
f 92/130/150 93/131/153 50/136/152
f 50/136/152 93/131/153 51/137/154
f 93/131/153 94/132/155 51/137/154
f 51/137/154 94/132/155 52/138/156
f 94/132/155 95/133/157 52/138/156
f 52/138/156 95/133/157 53/139/158
f 95/133/157 96/134/159 53/139/158
f 53/139/158 96/134/159 54/140/160
s 5
f 54/92/161 96/141/162 60/98/163
f 60/98/163 96/141/162 90/142/164
f 60/98/163 90/142/164 66/104/165
f 66/104/165 90/142/164 84/143/166
f 66/104/165 84/143/166 72/110/167
f 72/110/167 84/143/166 78/144/168
s 6
f 91/145/169 49/87/170 85/146/171
f 85/146/171 49/87/170 55/93/172
f 85/146/171 55/93/172 79/147/173
f 79/147/173 55/93/172 61/99/174
f 79/147/173 61/99/174 73/148/175
f 73/148/175 61/99/174 67/105/176
