# This file uses centimeters as units for non-parametric coordinates.

mtllib paredEntradaCocina.mtl
g default
v -1.320957 0.070168 3.789500
v -1.216957 0.070168 3.789500
v -1.320957 1.931416 3.789500
v -1.216957 1.931416 3.789500
v -1.320957 2.051369 3.789500
v -1.216957 2.051369 3.789500
v -1.320957 2.924168 3.789500
v -1.216957 2.924168 3.789500
v -1.320957 2.924168 0.630415
v -1.216957 2.924168 0.630415
v -1.320957 2.924168 0.502573
v -1.216957 2.924168 0.502573
v -1.320957 2.924168 -0.299858
v -1.216957 2.924168 -0.299858
v -1.320957 2.924168 -0.414500
v -1.216957 2.924168 -0.414500
v -1.320957 2.924168 -1.641500
v -1.216957 2.924168 -1.641500
v -1.320957 2.051369 -1.641500
v -1.216957 2.051369 -1.641500
v -1.320957 1.931416 -1.641500
v -1.216957 1.931416 -1.641500
v -1.320957 0.070168 -1.641500
v -1.216957 0.070168 -1.641500
v -1.320957 0.070168 -0.414500
v -1.216957 0.070168 -0.414500
v -1.320957 0.070168 -0.299858
v -1.216957 0.070168 -0.299858
v -1.320957 0.070168 0.502573
v -1.216957 0.070168 0.502573
v -1.320957 0.070168 0.630415
v -1.216957 0.070168 0.630415
v -1.216957 1.931416 -0.414500
v -1.216957 1.931416 -0.299858
v -1.216957 1.931416 0.502573
v -1.216957 1.931416 0.630415
v -1.216957 2.051369 -0.414500
v -1.216957 2.051369 -0.299858
v -1.216957 2.051369 0.502573
v -1.216957 2.051369 0.630415
v -1.320957 1.931416 -0.414500
v -1.320957 1.931416 -0.299858
v -1.320957 1.931416 0.502573
v -1.320957 1.931416 0.630415
v -1.320957 2.051369 -0.414500
v -1.320957 2.051369 -0.299858
v -1.320957 2.051369 0.502573
v -1.320957 2.051369 0.630415
v -1.325458 0.070168 -0.299858
v -1.325458 0.070168 0.502573
v -1.325458 1.931416 -0.299858
v -1.325458 1.931416 0.502573
vt 0.000000 0.213802
vt 1.000000 0.213802
vt 1.000000 0.587092
vt 0.000000 0.587092
vt 1.000000 0.611150
vt 0.000000 0.611150
vt 0.375000 0.250000
vt 0.625000 0.250000
vt 0.375000 0.300000
vt 0.625000 0.300000
vt 0.375000 0.350000
vt 0.625000 0.350000
vt 0.375000 0.400000
vt 0.625000 0.400000
vt 0.375000 0.450000
vt 0.625000 0.450000
vt 0.375000 0.500000
vt 0.625000 0.500000
vt 0.375000 0.583333
vt 0.625000 0.583333
vt 0.375000 0.666667
vt 0.625000 0.666667
vt 0.375000 0.750000
vt 0.625000 0.750000
vt 0.375000 0.800000
vt 0.625000 0.800000
vt 0.375000 0.850000
vt 0.625000 0.850000
vt 0.375000 0.900000
vt 0.625000 0.900000
vt 0.375000 0.950000
vt 0.625000 0.950000
vt 0.375000 1.000000
vt 0.625000 1.000000
vt 0.774075 0.051082
vt 1.000000 0.051082
vt 0.775000 0.000000
vt 0.725000 0.000000
vt 1.000000 0.636609
vt 0.774075 0.636609
vt 0.551924 0.953651
vt 0.775000 0.083333
vt 0.725000 0.083333
vt 0.568166 0.952458
vt 0.581676 0.051082
vt 0.569601 0.971999
vt 0.553358 0.973191
vt 0.581676 0.636609
vt 0.000000 0.051082
vt 0.000000 0.636609
vt 1.000000 0.674345
vt 0.774075 0.674345
vt 0.752966 0.674345
vt 0.605216 0.674345
vt 0.912652 0.000000
vt 0.726195 0.000000
vt 0.912652 0.652154
vt 0.726195 0.652154
vt 0.708774 0.000000
vt 0.708774 0.652154
vt 0.586835 0.000000
vt 0.567408 0.000000
vt 0.586835 0.652154
vt 0.567408 0.652154
vt 0.087347 0.000000
vt 0.087347 0.652154
vt 0.912652 0.694184
vt 0.726195 0.694184
vt 0.708774 0.694184
vt 0.586835 0.694184
vt 0.567408 0.694184
vt 0.087347 0.694184
vt 0.912652 1.000000
vt 0.726195 1.000000
vt 0.725000 0.000000
vt 0.775000 0.000000
vt 0.775000 0.083333
vt 0.725000 0.083333
vt 0.581676 0.674345
vt 0.000000 0.674345
vt 1.000000 0.948918
vt 0.774075 0.948918
vt 0.752966 0.948918
vt 0.605216 0.948918
vt 0.581676 0.948918
vt 0.000000 0.948918
vt 0.708774 1.000000
vt 0.586835 1.000000
vt 0.567408 1.000000
vt 0.087347 1.000000
vt 1.000000 0.786198
vt 0.000000 0.786198
vt 0.420124 0.963326
vt 0.438236 0.961996
vt 0.439671 0.981537
vt 0.421558 0.982867
vt 0.569693 0.973258
vt 0.553451 0.974451
vt 0.439763 0.982796
vt 0.421650 0.984126
vn 0.000000 0.000000 1.000000
vn 0.000000 0.000000 1.000000
vn 0.000000 0.000000 1.000000
vn 0.000000 0.000000 1.000000
vn 0.000000 0.000000 1.000000
vn 0.000000 0.000000 1.000000
vn 0.000000 0.000000 1.000000
vn 0.000000 0.000000 1.000000
vn 0.000000 1.000000 0.000000
vn 0.000000 1.000000 0.000000
vn 0.000000 1.000000 0.000000
vn 0.000000 1.000000 0.000000
vn 0.000000 1.000000 0.000000
vn 0.000000 1.000000 0.000000
vn 0.000000 1.000000 0.000000
vn 0.000000 1.000000 0.000000
vn 0.000000 1.000000 0.000000
vn 0.000000 1.000000 0.000000
vn 0.000000 1.000000 0.000000
vn 0.000000 1.000000 0.000000
vn 0.000000 0.000000 -1.000000
vn 0.000000 0.000000 -1.000000
vn 0.000000 0.000000 -1.000000
vn 0.000000 0.000000 -1.000000
vn 0.000000 0.000000 -1.000000
vn 0.000000 0.000000 -1.000000
vn 0.000000 0.000000 -1.000000
vn 0.000000 0.000000 -1.000000
vn 0.000000 -1.000000 0.000000
vn 0.000000 -1.000000 0.000000
vn 0.000000 -1.000000 0.000000
vn 0.000000 -1.000000 0.000000
vn 0.000000 -1.000000 0.000000
vn 0.000000 -1.000000 0.000000
vn 0.000000 -1.000000 0.000000
vn 0.000000 -1.000000 0.000000
vn 0.000000 -1.000000 0.000000
vn 0.000000 -1.000000 0.000000
vn 0.000000 -1.000000 0.000000
vn 0.000000 -1.000000 0.000000
vn 1.000000 0.000000 0.000000
vn 1.000000 0.000000 0.000000
vn 1.000000 0.000000 0.000000
vn 1.000000 0.000000 0.000000
vn 1.000000 0.000000 0.000000
vn 1.000000 0.000000 0.000000
vn 1.000000 0.000000 0.000000
vn 1.000000 0.000000 0.000000
vn 1.000000 0.000000 0.000000
vn 1.000000 0.000000 0.000000
vn 1.000000 0.000000 0.000000
vn 1.000000 0.000000 0.000000
vn 1.000000 0.000000 0.000000
vn 1.000000 0.000000 0.000000
vn 1.000000 0.000000 0.000000
vn 1.000000 0.000000 0.000000
vn 1.000000 0.000000 0.000000
vn 1.000000 0.000000 0.000000
vn 1.000000 0.000000 0.000000
vn 1.000000 0.000000 0.000000
vn 1.000000 0.000000 0.000000
vn 1.000000 0.000000 0.000000
vn 1.000000 0.000000 0.000000
vn 1.000000 0.000000 0.000000
vn -1.000000 0.000000 0.000000
vn -1.000000 0.000000 0.000000
vn -1.000000 0.000000 0.000000
vn -1.000000 0.000000 0.000000
vn -1.000000 0.000000 0.000000
vn -1.000000 0.000000 0.000000
vn -1.000000 0.000000 0.000000
vn -1.000000 0.000000 0.000000
vn -1.000000 0.000000 0.000000
vn -1.000000 0.000000 0.000000
vn -1.000000 0.000000 0.000000
vn -1.000000 0.000000 0.000000
vn -1.000000 0.000000 0.000000
vn -1.000000 0.000000 0.000000
vn -1.000000 -0.000000 0.000000
vn -1.000000 0.000000 0.000000
vn -1.000000 -0.000000 0.000000
vn -1.000000 0.000000 0.000000
vn -1.000000 0.000000 0.000000
vn -1.000000 0.000000 0.000000
vn -1.000000 0.000000 0.000000
vn -1.000000 0.000000 0.000000
vn -1.000000 0.000000 0.000000
vn -1.000000 0.000000 0.000000
vn 0.000000 1.000000 0.000000
vn 0.000000 1.000000 0.000000
vn 0.000000 1.000000 0.000000
vn 0.000000 1.000000 0.000000
vn 0.000000 0.000000 1.000000
vn 0.000000 0.000000 1.000000
vn 0.000000 0.000000 1.000000
vn 0.000000 0.000000 1.000000
vn 0.000000 -1.000000 0.000000
vn 0.000000 -1.000000 0.000000
vn 0.000000 -1.000000 0.000000
vn 0.000000 -1.000000 0.000000
vn 0.000000 0.000000 -1.000000
vn 0.000000 0.000000 -1.000000
vn 0.000000 0.000000 -1.000000
vn 0.000000 0.000000 -1.000000
s 1
g pasted__pCube31 group66
usemtl lambert73SG
f 1/1/1 2/2/2 3/4/3
f 3/4/3 2/2/2 4/3/4
f 3/4/3 4/3/4 5/6/5
f 5/6/5 4/3/4 6/5/6
f 5/6/5 6/5/6 7/92/7
f 7/92/7 6/5/6 8/91/8
s 2
f 7/7/9 8/8/10 9/9/11
f 9/9/11 8/8/10 10/10/12
f 9/9/11 10/10/12 11/11/13
f 11/11/13 10/10/12 12/12/14
f 11/11/13 12/12/14 13/13/15
f 13/13/15 12/12/14 14/14/16
f 13/13/15 14/14/16 15/15/17
f 15/15/17 14/14/16 16/16/18
f 15/15/17 16/16/18 17/17/19
f 17/17/19 16/16/18 18/18/20
s 3
f 17/17/21 18/18/22 19/19/23
f 19/19/23 18/18/22 20/20/24
f 19/19/23 20/20/24 21/21/25
f 21/21/25 20/20/24 22/22/26
f 21/21/25 22/22/26 23/23/27
f 23/23/27 22/22/26 24/24/28
s 4
f 23/23/29 24/24/30 25/25/31
f 25/25/31 24/24/30 26/26/32
f 25/25/31 26/26/32 27/27/33
f 27/27/33 26/26/32 28/28/34
f 27/27/33 28/28/34 29/29/35
f 29/29/35 28/28/34 30/30/36
f 29/29/35 30/30/36 31/31/37
f 31/31/37 30/30/36 32/32/38
f 31/31/37 32/32/38 1/33/39
f 1/33/39 32/32/38 2/34/40
s 5
f 26/35/41 24/36/42 33/40/43
f 33/40/43 24/36/42 22/39/44
f 28/41/45 26/44/41 34/47/46
f 34/47/46 26/44/41 33/46/43
f 32/93/47 30/94/48 36/96/49
f 36/96/49 30/94/48 35/95/50
f 2/49/51 32/45/47 4/50/52
f 4/50/52 32/45/47 36/48/49
f 33/40/43 22/39/44 37/52/53
f 37/52/53 22/39/44 20/51/54
f 34/47/46 33/46/43 38/98/55
f 38/98/55 33/46/43 37/97/53
f 35/95/50 34/47/46 39/99/56
f 39/99/56 34/47/46 38/98/55
f 36/96/49 35/95/50 40/100/57
f 40/100/57 35/95/50 39/99/56
f 4/50/52 36/48/49 6/80/58
f 6/80/58 36/48/49 40/79/57
f 37/52/53 20/51/54 16/82/59
f 16/82/59 20/51/54 18/81/60
f 38/53/55 37/52/53 14/83/61
f 14/83/61 37/52/53 16/82/59
f 39/54/56 38/53/55 12/84/62
f 12/84/62 38/53/55 14/83/61
f 40/79/57 39/54/56 10/85/63
f 10/85/63 39/54/56 12/84/62
f 6/80/58 40/79/57 8/86/64
f 8/86/64 40/79/57 10/85/63
s 7
f 23/55/65 25/56/66 21/57/67
f 21/57/67 25/56/66 41/58/68
f 25/56/66 27/59/69 41/58/68
f 41/58/68 27/59/69 42/60/70
f 29/61/71 31/62/72 43/63/73
f 43/63/73 31/62/72 44/64/74
f 31/62/72 1/65/75 44/64/74
f 44/64/74 1/65/75 3/66/76
f 21/57/67 41/58/68 19/67/77
f 19/67/77 41/58/68 45/68/78
f 41/58/68 42/60/70 45/68/78
f 45/68/78 42/60/70 46/69/79
f 42/60/70 43/63/73 46/69/79
f 46/69/79 43/63/73 47/70/80
f 43/63/73 44/64/74 47/70/80
f 47/70/80 44/64/74 48/71/81
f 44/64/74 3/66/76 48/71/81
f 48/71/81 3/66/76 5/72/82
f 19/67/77 45/68/78 17/73/83
f 17/73/83 45/68/78 15/74/84
f 45/68/78 46/69/79 15/74/84
f 15/74/84 46/69/79 13/87/85
f 46/69/79 47/70/80 13/87/85
f 13/87/85 47/70/80 11/88/86
f 47/70/80 48/71/81 11/88/86
f 11/88/86 48/71/81 9/89/87
f 48/71/81 5/72/82 9/89/87
f 9/89/87 5/72/82 7/90/88
s 9
f 30/38/89 28/37/90 50/75/91
f 50/75/91 28/37/90 49/76/92
s 10
f 28/37/93 34/42/94 49/76/95
f 49/76/95 34/42/94 51/77/96
s 11
f 34/42/97 35/43/98 51/77/99
f 51/77/99 35/43/98 52/78/100
s 12
f 35/43/101 30/38/102 52/78/103
f 52/78/103 30/38/102 50/75/104
