# This file uses centimeters as units for non-parametric coordinates.

mtllib paredfrentecocina.mtl
g default
v -1.260465 0.078200 3.741268
v -1.260465 0.078200 3.671268
v -1.260465 2.965801 3.741268
v -1.260465 2.965801 3.671268
v -4.891744 2.965801 3.741268
v -4.891744 2.965801 3.671268
v -4.891744 0.078200 3.741268
v -4.891744 0.078200 3.671268
vt 0.375000 0.000000
vt 0.625000 0.000000
vt 0.375000 0.250000
vt 0.625000 0.250000
vt 0.375000 0.500000
vt 0.625000 0.500000
vt 0.375000 0.750000
vt 0.625000 0.750000
vt 0.375000 1.000000
vt 0.625000 1.000000
vt 0.117327 0.000000
vt 0.882673 0.000000
vt 0.125000 0.000000
vt 0.125000 0.250000
vt 0.882673 1.000000
vt 0.117327 1.000000
vn 1.000000 0.000000 0.000000
vn 1.000000 0.000000 0.000000
vn 1.000000 0.000000 0.000000
vn 1.000000 0.000000 0.000000
vn 0.000000 1.000000 0.000000
vn 0.000000 1.000000 0.000000
vn 0.000000 1.000000 0.000000
vn 0.000000 1.000000 0.000000
vn -1.000000 0.000000 -0.000000
vn -1.000000 0.000000 -0.000000
vn -1.000000 0.000000 -0.000000
vn -1.000000 0.000000 -0.000000
vn 0.000000 -1.000000 0.000000
vn 0.000000 -1.000000 0.000000
vn 0.000000 -1.000000 0.000000
vn 0.000000 -1.000000 0.000000
vn 0.000000 0.000000 -1.000000
vn 0.000000 0.000000 -1.000000
vn 0.000000 0.000000 -1.000000
vn 0.000000 0.000000 -1.000000
vn -0.000000 0.000000 1.000000
vn -0.000000 0.000000 1.000000
vn -0.000000 0.000000 1.000000
vn -0.000000 0.000000 1.000000
s 1
g pasted__pasted__pCube35 pasted__group67 group68
usemtl pasted__pasted__lambert75SG
f 1/1/1 2/2/2 3/3/3
f 3/3/3 2/2/2 4/4/4
s 2
f 3/3/5 4/4/6 5/5/7
f 5/5/7 4/4/6 6/6/8
s 3
f 5/5/9 6/6/10 7/7/11
f 7/7/11 6/6/10 8/8/12
s 4
f 7/7/13 8/8/14 1/9/15
f 1/9/15 8/8/14 2/10/16
s 5
f 2/11/17 8/12/18 4/16/19
f 4/16/19 8/12/18 6/15/20
s 6
f 7/13/21 1/1/22 5/14/23
f 5/14/23 1/1/22 3/3/24
g default
v -1.260465 0.078200 3.741268
v -1.260465 0.078200 3.671268
v -1.260465 2.965801 3.741268
v -1.260465 2.965801 3.671268
v -4.891744 2.965801 3.741268
v -4.891744 2.965801 3.671268
v -4.891744 0.078200 3.741268
v -4.891744 0.078200 3.671268
vt 0.375000 0.000000
vt 0.625000 0.000000
vt 0.375000 0.250000
vt 0.625000 0.250000
vt 0.375000 0.500000
vt 0.625000 0.500000
vt 0.375000 0.750000
vt 0.625000 0.750000
vt 0.375000 1.000000
vt 0.625000 1.000000
vt 0.117327 0.000000
vt 0.882673 0.000000
vt 0.125000 0.000000
vt 0.125000 0.250000
vt 0.882673 1.000000
vt 0.117327 1.000000
vn 1.000000 0.000000 0.000000
vn 1.000000 0.000000 0.000000
vn 1.000000 0.000000 0.000000
vn 1.000000 0.000000 0.000000
vn 0.000000 1.000000 0.000000
vn 0.000000 1.000000 0.000000
vn 0.000000 1.000000 0.000000
vn 0.000000 1.000000 0.000000
vn -1.000000 0.000000 -0.000000
vn -1.000000 0.000000 -0.000000
vn -1.000000 0.000000 -0.000000
vn -1.000000 0.000000 -0.000000
vn 0.000000 -1.000000 0.000000
vn 0.000000 -1.000000 0.000000
vn 0.000000 -1.000000 0.000000
vn 0.000000 -1.000000 0.000000
vn 0.000000 0.000000 -1.000000
vn 0.000000 0.000000 -1.000000
vn 0.000000 0.000000 -1.000000
vn 0.000000 0.000000 -1.000000
vn -0.000000 0.000000 1.000000
vn -0.000000 0.000000 1.000000
vn -0.000000 0.000000 1.000000
vn -0.000000 0.000000 1.000000
s 1
g pasted__pasted__pCube35 pasted__group67 group68
f 9/17/25 10/18/26 11/19/27
f 11/19/27 10/18/26 12/20/28
s 2
f 11/19/29 12/20/30 13/21/31
f 13/21/31 12/20/30 14/22/32
s 3
f 13/21/33 14/22/34 15/23/35
f 15/23/35 14/22/34 16/24/36
s 4
f 15/23/37 16/24/38 9/25/39
f 9/25/39 16/24/38 10/26/40
s 5
f 10/27/41 16/28/42 12/32/43
f 12/32/43 16/28/42 14/31/44
s 6
f 15/29/45 9/17/46 13/30/47
f 13/30/47 9/17/46 11/19/48
