# This file uses centimeters as units for non-parametric coordinates.

mtllib paredsalader.mtl
g default
v 4.880449 0.103593 3.863626
v 4.984709 0.103593 3.863626
v 4.880449 1.054914 3.863626
v 4.984709 1.054914 3.863626
v 4.880449 2.006236 3.863626
v 4.984709 2.006236 3.863626
v 4.880449 2.957558 3.863626
v 4.984709 2.957558 3.863626
v 4.880449 2.957558 3.524088
v 4.984709 2.957558 3.524088
v 4.880449 2.957558 1.978637
v 4.984709 2.957558 1.978637
v 4.880449 2.957558 -1.900960
v 4.984709 2.957558 -1.900960
v 4.880449 2.957558 -3.446411
v 4.984709 2.957558 -3.446411
v 4.880449 2.957558 -3.863626
v 4.984709 2.957558 -3.863626
v 4.880449 2.006236 -3.863626
v 4.984709 2.006236 -3.863626
v 4.880449 1.054914 -3.863626
v 4.984709 1.054914 -3.863626
v 4.880449 0.103593 -3.863626
v 4.984709 0.103593 -3.863626
v 4.880449 0.103593 -3.446411
v 4.984709 0.103593 -3.446411
v 4.880449 0.103593 -1.900960
v 4.984709 0.103593 -1.900960
v 4.880449 0.103593 1.978637
v 4.984709 0.103593 1.978637
v 4.880449 0.103593 3.524088
v 4.984709 0.103593 3.524088
v 4.984709 1.054914 -3.446411
v 4.984709 1.054914 -1.900960
v 4.984709 1.054914 1.978637
v 4.984709 1.054914 3.524088
v 4.984709 2.006236 -3.446411
v 4.984709 2.006236 -1.900960
v 4.984709 2.006236 1.978637
v 4.984709 2.006236 3.524088
v 4.880449 1.054914 -3.446411
v 4.880449 1.054914 -1.900960
v 4.880449 1.054914 1.978637
v 4.880449 1.054914 3.524088
v 4.880449 2.006236 -3.446411
v 4.880449 2.006236 -1.900960
v 4.880449 2.006236 1.978637
v 4.880449 2.006236 3.524088
vt 0.000000 0.267530
vt 0.946007 -0.000000
vt 1.000000 0.267530
vt 1.000000 -0.000000
vt 1.000000 0.422510
vt 1.000000 0.333333
vt 0.375000 0.250000
vt 0.625000 0.250000
vt 0.375000 0.300000
vt 0.625000 0.300000
vt 0.375000 0.350000
vt 0.625000 0.350000
vt 0.375000 0.400000
vt 0.625000 0.400000
vt 0.375000 0.450000
vt 0.625000 0.450000
vt 0.375000 0.500000
vt 0.625000 0.500000
vt 0.375000 0.583333
vt 0.625000 0.583333
vt 0.375000 0.666667
vt 0.625000 0.666667
vt 0.375000 0.750000
vt 0.625000 0.750000
vt 0.375000 0.800000
vt 0.625000 0.800000
vt 0.375000 0.850000
vt 0.625000 0.850000
vt 0.375000 0.900000
vt 0.625000 0.900000
vt 0.375000 0.950000
vt 0.625000 0.950000
vt 0.375000 1.000000
vt 0.625000 1.000000
vt 0.946007 0.333333
vt 0.746007 -0.000000
vt 0.746007 0.333333
vt 0.243940 -0.000000
vt 0.243940 0.333333
vt 0.043940 -0.000000
vt 0.043940 0.333333
vt 0.000000 -0.000000
vt 0.000000 0.333333
vt 1.000000 0.666667
vt 0.946007 0.666667
vt 0.746007 0.666667
vt 0.243940 0.666667
vt 0.043940 0.666667
vt 0.000000 0.666667
vt 1.000000 1.000000
vt 0.946007 1.000000
vt 0.746007 1.000000
vt 0.243940 1.000000
vt 0.043940 1.000000
vt 1.000000 0.051786
vt 0.946007 0.051786
vt 0.946007 0.350595
vt 1.000000 0.350595
vt 0.746007 0.051786
vt 0.746007 0.350595
vt 0.243940 0.051786
vt 0.243940 0.350595
vt 0.043940 0.051786
vt 0.043940 0.350595
vt 0.000000 0.051786
vt 0.000000 0.350595
vt 0.946007 0.649405
vt 1.000000 0.649405
vt 0.243940 0.649405
vt 0.746007 0.649405
vt 0.000000 0.649405
vt 0.043940 0.649405
vt 0.946007 0.948214
vt 1.000000 0.948214
vt 0.746007 0.948214
vt 0.243940 0.948214
vt 0.043940 0.948214
vt 0.000000 0.948214
vt 0.000000 0.422510
vt 1.000000 0.577490
vt 0.000000 0.577490
vt 1.000000 0.732470
vt 0.000000 0.732470
vt 0.000000 1.000000
vn 0.000000 0.000000 1.000000
vn 0.000000 0.000000 1.000000
vn 0.000000 0.000000 1.000000
vn 0.000000 0.000000 1.000000
vn 0.000000 0.000000 1.000000
vn 0.000000 0.000000 1.000000
vn 0.000000 0.000000 1.000000
vn 0.000000 0.000000 1.000000
vn 0.000000 1.000000 0.000000
vn 0.000000 1.000000 0.000000
vn 0.000000 1.000000 0.000000
vn 0.000000 1.000000 0.000000
vn 0.000000 1.000000 0.000000
vn 0.000000 1.000000 0.000000
vn 0.000000 1.000000 0.000000
vn 0.000000 1.000000 0.000000
vn 0.000000 1.000000 0.000000
vn 0.000000 1.000000 0.000000
vn 0.000000 1.000000 0.000000
vn 0.000000 1.000000 0.000000
vn 0.000000 0.000000 -1.000000
vn 0.000000 0.000000 -1.000000
vn 0.000000 0.000000 -1.000000
vn 0.000000 0.000000 -1.000000
vn 0.000000 0.000000 -1.000000
vn 0.000000 0.000000 -1.000000
vn 0.000000 0.000000 -1.000000
vn 0.000000 0.000000 -1.000000
vn 0.000000 -1.000000 0.000000
vn 0.000000 -1.000000 0.000000
vn 0.000000 -1.000000 0.000000
vn 0.000000 -1.000000 0.000000
vn 0.000000 -1.000000 0.000000
vn 0.000000 -1.000000 0.000000
vn 0.000000 -1.000000 0.000000
vn 0.000000 -1.000000 0.000000
vn 0.000000 -1.000000 0.000000
vn 0.000000 -1.000000 0.000000
vn 0.000000 -1.000000 0.000000
vn 0.000000 -1.000000 0.000000
vn 1.000000 0.000000 0.000000
vn 1.000000 0.000000 0.000000
vn 1.000000 0.000000 0.000000
vn 1.000000 0.000000 0.000000
vn 1.000000 0.000000 0.000000
vn 1.000000 0.000000 0.000000
vn 1.000000 0.000000 0.000000
vn 1.000000 0.000000 0.000000
vn 1.000000 0.000000 0.000000
vn 1.000000 0.000000 0.000000
vn 1.000000 0.000000 0.000000
vn 1.000000 0.000000 0.000000
vn 1.000000 0.000000 0.000000
vn 1.000000 0.000000 0.000000
vn 1.000000 -0.000000 0.000000
vn 1.000000 -0.000000 0.000000
vn 1.000000 0.000000 0.000000
vn 1.000000 0.000000 0.000000
vn 1.000000 0.000000 0.000000
vn 1.000000 0.000000 0.000000
vn 1.000000 0.000000 0.000000
vn 1.000000 -0.000000 0.000000
vn 1.000000 0.000000 0.000000
vn 1.000000 0.000000 0.000000
vn -1.000000 0.000000 0.000000
vn -1.000000 0.000000 0.000000
vn -1.000000 0.000000 0.000000
vn -1.000000 0.000000 0.000000
vn -1.000000 0.000000 0.000000
vn -1.000000 0.000000 0.000000
vn -1.000000 0.000000 0.000000
vn -1.000000 0.000000 0.000000
vn -1.000000 0.000000 0.000000
vn -1.000000 0.000000 0.000000
vn -1.000000 0.000000 0.000000
vn -1.000000 0.000000 0.000000
vn -1.000000 0.000000 0.000000
vn -1.000000 0.000000 0.000000
vn -1.000000 0.000000 0.000000
vn -1.000000 -0.000000 0.000000
vn -1.000000 -0.000000 0.000000
vn -1.000000 0.000000 0.000000
vn -1.000000 0.000000 0.000000
vn -1.000000 0.000000 0.000000
vn -1.000000 0.000000 0.000000
vn -1.000000 -0.000000 0.000000
vn -1.000000 0.000000 0.000000
vn -1.000000 0.000000 0.000000
s 1
g pasted__pCube2 group
usemtl lambert10SG
f 1/1/1 2/3/2 3/79/3
f 3/79/3 2/3/2 4/5/4
f 3/79/3 4/5/4 5/81/5
f 5/81/5 4/5/4 6/80/6
f 5/81/5 6/80/6 7/83/7
f 7/83/7 6/80/6 8/82/8
s 2
f 7/7/9 8/8/10 9/9/11
f 9/9/11 8/8/10 10/10/12
f 9/9/11 10/10/12 11/11/13
f 11/11/13 10/10/12 12/12/14
f 11/11/13 12/12/14 13/13/15
f 13/13/15 12/12/14 14/14/16
f 13/13/15 14/14/16 15/15/17
f 15/15/17 14/14/16 16/16/18
f 15/15/17 16/16/18 17/17/19
f 17/17/19 16/16/18 18/18/20
s 3
f 17/17/21 18/18/22 19/19/23
f 19/19/23 18/18/22 20/20/24
f 19/19/23 20/20/24 21/21/25
f 21/21/25 20/20/24 22/22/26
f 21/21/25 22/22/26 23/23/27
f 23/23/27 22/22/26 24/24/28
s 4
f 23/23/29 24/24/30 25/25/31
f 25/25/31 24/24/30 26/26/32
f 25/25/31 26/26/32 27/27/33
f 27/27/33 26/26/32 28/28/34
f 27/27/33 28/28/34 29/29/35
f 29/29/35 28/28/34 30/30/36
f 29/29/35 30/30/36 31/31/37
f 31/31/37 30/30/36 32/32/38
f 31/31/37 32/32/38 1/33/39
f 1/33/39 32/32/38 2/34/40
s 5
usemtl lambert23SG
f 26/2/41 24/4/42 33/35/43
f 33/35/43 24/4/42 22/6/44
f 28/36/45 26/2/41 34/37/46
f 34/37/46 26/2/41 33/35/43
f 30/38/47 28/36/45 35/39/48
f 35/39/48 28/36/45 34/37/46
f 32/40/49 30/38/47 36/41/50
f 36/41/50 30/38/47 35/39/48
f 2/42/51 32/40/49 4/43/52
f 4/43/52 32/40/49 36/41/50
f 33/35/43 22/6/44 37/45/53
f 37/45/53 22/6/44 20/44/54
f 35/39/48 34/37/46 39/47/55
f 39/47/55 34/37/46 38/46/56
f 4/43/52 36/41/50 6/49/57
f 6/49/57 36/41/50 40/48/58
f 37/45/53 20/44/54 16/51/59
f 16/51/59 20/44/54 18/50/60
f 38/46/56 37/45/53 14/52/61
f 14/52/61 37/45/53 16/51/59
f 39/47/55 38/46/56 12/53/62
f 12/53/62 38/46/56 14/52/61
f 40/48/58 39/47/55 10/54/63
f 10/54/63 39/47/55 12/53/62
f 6/49/57 40/48/58 8/84/64
f 8/84/64 40/48/58 10/54/63
s 6
usemtl lambert10SG
f 23/55/65 25/56/66 21/58/67
f 21/58/67 25/56/66 41/57/68
f 25/56/66 27/59/69 41/57/68
f 41/57/68 27/59/69 42/60/70
f 27/59/69 29/61/71 42/60/70
f 42/60/70 29/61/71 43/62/72
f 29/61/71 31/63/73 43/62/72
f 43/62/72 31/63/73 44/64/74
f 31/63/73 1/65/75 44/64/74
f 44/64/74 1/65/75 3/66/76
f 21/58/67 41/57/68 19/68/77
f 19/68/77 41/57/68 45/67/78
f 42/60/70 43/62/72 46/70/79
f 46/70/79 43/62/72 47/69/80
f 44/64/74 3/66/76 48/72/81
f 48/72/81 3/66/76 5/71/82
f 19/68/77 45/67/78 17/74/83
f 17/74/83 45/67/78 15/73/84
f 45/67/78 46/70/79 15/73/84
f 15/73/84 46/70/79 13/75/85
f 46/70/79 47/69/80 13/75/85
f 13/75/85 47/69/80 11/76/86
f 47/69/80 48/72/81 11/76/86
f 11/76/86 48/72/81 9/77/87
f 48/72/81 5/71/82 9/77/87
f 9/77/87 5/71/82 7/78/88
