# This file uses centimeters as units for non-parametric coordinates.

mtllib refri.mtl
g default
v -1.999440 0.102620 1.356203
v -1.339389 0.102620 1.356203
v -1.999440 1.669384 1.356203
v -1.339389 1.669384 1.356203
v -1.999440 1.669384 0.604966
v -1.339389 1.669384 0.604966
v -1.999440 0.102620 0.604966
v -1.339389 0.102620 0.604966
vt 0.230039 0.179240
vt 0.230039 0.179240
vt 0.230039 0.448437
vt 0.230039 0.448437
vt 0.375170 0.448437
vt 0.375170 0.448437
vt 0.375170 0.179240
vt 0.375170 0.179240
vt 1.000000 1.000000
vt -0.000000 1.000000
vt -0.000000 -0.000000
vt 1.000000 -0.000000
vn 0.000000 0.000000 1.000000
vn 0.000000 0.000000 1.000000
vn 0.000000 0.000000 1.000000
vn 0.000000 0.000000 1.000000
vn 0.000000 1.000000 0.000000
vn 0.000000 1.000000 0.000000
vn 0.000000 1.000000 0.000000
vn 0.000000 1.000000 0.000000
vn 0.000000 0.000000 -1.000000
vn 0.000000 0.000000 -1.000000
vn 0.000000 0.000000 -1.000000
vn 0.000000 0.000000 -1.000000
vn 0.000000 -1.000000 0.000000
vn 0.000000 -1.000000 0.000000
vn 0.000000 -1.000000 0.000000
vn 0.000000 -1.000000 0.000000
vn 1.000000 0.000000 0.000000
vn 1.000000 0.000000 0.000000
vn 1.000000 0.000000 0.000000
vn 1.000000 0.000000 0.000000
vn -1.000000 0.000000 0.000000
vn -1.000000 0.000000 0.000000
vn -1.000000 0.000000 0.000000
vn -1.000000 0.000000 0.000000
s 1
g fridge1:pCube1
usemtl fridge1:lambert1SG
f 1/1/1 2/2/2 3/4/3
f 3/4/3 2/2/2 4/3/4
s 2
f 3/4/5 4/3/6 5/6/7
f 5/6/7 4/3/6 6/5/8
s 3
f 5/6/9 6/5/10 7/8/11
f 7/8/11 6/5/10 8/7/12
s 4
f 7/8/13 8/7/14 1/1/15
f 1/1/15 8/7/14 2/2/16
s 5
f 2/2/17 8/7/18 4/3/19
f 4/3/19 8/7/18 6/5/20
s 6
f 7/12/21 1/11/22 5/9/23
f 5/9/23 1/11/22 3/10/24
g default
v -1.999440 0.102620 1.356203
v -1.339389 0.102620 1.356203
v -1.999440 1.669384 1.356203
v -1.339389 1.669384 1.356203
v -1.999440 1.669384 0.604966
v -1.339389 1.669384 0.604966
v -1.999440 0.102620 0.604966
v -1.339389 0.102620 0.604966
vt 0.230039 0.179240
vt 0.230039 0.179240
vt 0.230039 0.448437
vt 0.230039 0.448437
vt 0.375170 0.448437
vt 0.375170 0.448437
vt 0.375170 0.179240
vt 0.375170 0.179240
vt 1.000000 1.000000
vt -0.000000 1.000000
vt -0.000000 -0.000000
vt 1.000000 -0.000000
vn 0.000000 0.000000 1.000000
vn 0.000000 0.000000 1.000000
vn 0.000000 0.000000 1.000000
vn 0.000000 0.000000 1.000000
vn 0.000000 1.000000 0.000000
vn 0.000000 1.000000 0.000000
vn 0.000000 1.000000 0.000000
vn 0.000000 1.000000 0.000000
vn 0.000000 0.000000 -1.000000
vn 0.000000 0.000000 -1.000000
vn 0.000000 0.000000 -1.000000
vn 0.000000 0.000000 -1.000000
vn 0.000000 -1.000000 0.000000
vn 0.000000 -1.000000 0.000000
vn 0.000000 -1.000000 0.000000
vn 0.000000 -1.000000 0.000000
vn 1.000000 0.000000 0.000000
vn 1.000000 0.000000 0.000000
vn 1.000000 0.000000 0.000000
vn 1.000000 0.000000 0.000000
vn -1.000000 0.000000 0.000000
vn -1.000000 0.000000 0.000000
vn -1.000000 0.000000 0.000000
vn -1.000000 0.000000 0.000000
s 1
g fridge1:pCube1
f 9/13/25 10/14/26 11/16/27
f 11/16/27 10/14/26 12/15/28
s 2
f 11/16/29 12/15/30 13/18/31
f 13/18/31 12/15/30 14/17/32
s 3
f 13/18/33 14/17/34 15/20/35
f 15/20/35 14/17/34 16/19/36
s 4
f 15/20/37 16/19/38 9/13/39
f 9/13/39 16/19/38 10/14/40
s 5
f 10/14/41 16/19/42 12/15/43
f 12/15/43 16/19/42 14/17/44
s 6
f 15/24/45 9/23/46 13/21/47
f 13/21/47 9/23/46 11/22/48
